<svg xmlns="http://www.w3.org/2000/svg" width="125" height="125" viewBox="0 0 125 125">
  <g id="instagram" transform="translate(-0.449)">
    <path id="Caminho_9" data-name="Caminho 9" d="M125.131,36.75a45.668,45.668,0,0,0-2.906-15.165A32.024,32.024,0,0,0,103.931,3.3,45.809,45.809,0,0,0,88.765.391C82.072.073,79.947,0,62.973,0s-19.1.073-25.767.366A45.7,45.7,0,0,0,22.04,3.272,30.506,30.506,0,0,0,10.951,10.5a30.775,30.775,0,0,0-7.2,11.062A45.79,45.79,0,0,0,.84,36.726C.522,43.417.449,45.541.449,62.513s.073,19.1.366,25.762a45.665,45.665,0,0,0,2.907,15.165,32.018,32.018,0,0,0,18.293,18.289,45.816,45.816,0,0,0,15.167,2.905c6.667.294,8.792.366,25.767.366s19.1-.072,25.767-.366a45.681,45.681,0,0,0,15.166-2.905,31.976,31.976,0,0,0,18.294-18.289,45.821,45.821,0,0,0,2.906-15.165c.293-6.667.366-8.791.366-25.762s-.025-19.1-.318-25.762ZM113.872,87.786a34.256,34.256,0,0,1-2.149,11.6,20.737,20.737,0,0,1-11.87,11.868,34.4,34.4,0,0,1-11.6,2.148c-6.594.294-8.572.366-25.253.366s-18.684-.072-25.254-.366a34.256,34.256,0,0,1-11.6-2.148,19.239,19.239,0,0,1-7.18-4.664A19.434,19.434,0,0,1,14.3,99.41a34.383,34.383,0,0,1-2.149-11.6c-.294-6.593-.366-8.571-.366-25.25s.073-18.68.366-25.249a34.238,34.238,0,0,1,2.149-11.6,19,19,0,0,1,4.69-7.18,19.408,19.408,0,0,1,7.18-4.663,34.419,34.419,0,0,1,11.6-2.149c6.594-.293,8.573-.366,25.253-.366,16.706,0,18.684.073,25.254.366a34.274,34.274,0,0,1,11.6,2.149,19.225,19.225,0,0,1,7.18,4.663,19.43,19.43,0,0,1,4.665,7.18,34.4,34.4,0,0,1,2.149,11.6c.293,6.593.366,8.57.366,25.249s-.073,18.632-.366,25.225Zm0,0" fill="#f36209"/>
    <path id="Caminho_10" data-name="Caminho 10" d="M157.066,124.5a32.111,32.111,0,1,0,32.117,32.111A32.122,32.122,0,0,0,157.066,124.5Zm0,52.94A20.829,20.829,0,1,1,177.9,156.611a20.835,20.835,0,0,1-20.833,20.829Zm0,0" transform="translate(-94.093 -94.098)" fill="#f36209"/>
    <path id="Caminho_11" data-name="Caminho 11" d="M377.446,96.1a7.5,7.5,0,1,1-7.5-7.5A7.5,7.5,0,0,1,377.446,96.1Zm0,0" transform="translate(-273.588 -66.966)" fill="#f36209"/>
  </g>
</svg>
