<!DOCTYPE svg PUBLIC "-//W3C//DTD SVG 20010904//EN" "http://www.w3.org/TR/2001/REC-SVG-20010904/DTD/svg10.dtd">
<svg version="1.0" xmlns="http://www.w3.org/2000/svg" width="90px" height="90px" viewBox="0 0 900 900" preserveAspectRatio="xMidYMid meet">
<g id="layer101" fill="#b3b29d" stroke="none">
 <path d="M211 774 l-41 -46 42 -47 c24 -26 81 -83 126 -126 46 -44 91 -93 99 -109 l15 -29 -111 -107 c-61 -59 -111 -112 -111 -116 1 -11 24 -38 74 -84 30 -29 38 -32 46 -20 8 13 13 13 30 2 27 -17 39 -8 228 175 104 100 142 144 142 161 0 17 -52 75 -187 207 l-188 184 -61 1 c-60 0 -62 -1 -103 -46z"/>
 </g>
<g id="layer102" fill="#f9f458" stroke="none">
 <path d="M268 778 c-21 -22 -38 -46 -38 -53 0 -7 61 -72 135 -146 90 -89 135 -141 135 -155 0 -14 -30 -49 -92 -104 -51 -46 -100 -93 -107 -106 -20 -30 -5 -57 55 -103 l45 -34 27 25 c158 142 296 277 308 300 12 23 12 32 2 52 -7 13 -93 100 -190 195 -157 152 -180 171 -210 171 -26 -1 -41 -10 -70 -42z"/>
 </g>

</svg>