<!DOCTYPE svg PUBLIC "-//W3C//DTD SVG 20010904//EN" "http://www.w3.org/TR/2001/REC-SVG-20010904/DTD/svg10.dtd">
<svg version="1.0" xmlns="http://www.w3.org/2000/svg" width="90px" height="90px" viewBox="0 0 900 900" preserveAspectRatio="xMidYMid meet">
<g id="layer101" fill="#655b5a" stroke="none">
 <path d="M302 663 c-150 -145 -172 -170 -172 -198 0 -27 19 -50 143 -170 240 -235 235 -232 293 -239 l50 -6 47 57 c28 35 43 62 39 70 -4 7 -65 71 -135 142 -80 81 -127 136 -127 149 0 11 12 30 28 42 70 55 182 174 182 194 0 13 -22 43 -54 75 -48 48 -55 52 -74 40 -16 -10 -24 -10 -35 -1 -11 10 -45 -18 -185 -155z"/>
 </g>
<g id="layer102" fill="#ef5d5d" stroke="none">
 <path d="M479 779 c-30 -28 -107 -102 -171 -165 -162 -156 -166 -133 61 -359 197 -195 196 -195 228 -195 21 0 103 83 103 106 0 6 -58 70 -130 142 -93 95 -130 139 -130 156 0 16 23 46 77 97 112 108 133 130 133 143 -1 15 -26 46 -76 89 l-40 36 -55 -50z"/>
 </g>

</svg>