<svg id="Capa_1" enable-background="new 0 0 512 512" height="512" viewBox="0 0 512 512" width="512" xmlns="http://www.w3.org/2000/svg"><g><g><path d="m512 72.638v366.724c0 5.687-4.615 10.302-10.302 10.302h-491.396c-5.687 0-10.302-4.615-10.302-10.302v-366.724c0-5.687 4.615-10.302 10.302-10.302h491.396c5.687 0 10.302 4.615 10.302 10.302z" fill="#717177"/><path d="m512 72.638v366.724c0 5.687-4.615 10.302-10.302 10.302h-123.395c113.979-98.66 111.445-328.061 108.756-387.327h14.639c5.687-.001 10.302 4.614 10.302 10.301z" fill="#5f5f68"/><path d="m512 72.638v54.631h-512v-54.631c0-5.687 4.615-10.302 10.302-10.302h491.396c5.687 0 10.302 4.615 10.302 10.302z" fill="#ffb800"/><path d="m512 72.638v54.631h-24.549c.845-28.289.237-51.19-.391-64.932h14.639c5.686-.001 10.301 4.614 10.301 10.301z" fill="#ff9700"/><g fill="#ff7300"><path d="m41.255 102.531h-.117c-4.268 0-7.726-3.459-7.726-7.726s3.459-7.726 7.726-7.726h.117c4.268 0 7.726 3.459 7.726 7.726 0 4.266-3.459 7.726-7.726 7.726z"/><path d="m64.58 102.531h-.116c-4.268 0-7.726-3.459-7.726-7.726s3.459-7.726 7.726-7.726h.116c4.268 0 7.726 3.459 7.726 7.726.001 4.266-3.458 7.726-7.726 7.726z"/><path d="m87.907 102.531h-.116c-4.268 0-7.726-3.459-7.726-7.726s3.459-7.726 7.726-7.726h.116c4.268 0 7.726 3.459 7.726 7.726.001 4.266-3.458 7.726-7.726 7.726z"/><path d="m470.862 102.531h-14.377c-4.268 0-7.726-3.459-7.726-7.726s3.459-7.726 7.726-7.726h14.377c4.268 0 7.726 3.459 7.726 7.726.001 4.266-3.458 7.726-7.726 7.726z"/></g></g><g><path d="m464.26 192.572v204.676c0 5.687-4.615 10.302-10.302 10.302h-204.676c-5.687 0-10.302-4.615-10.302-10.302v-204.676c0-5.687 4.615-10.302 10.302-10.302h204.676c5.687 0 10.302 4.615 10.302 10.302z" fill="#ffb800"/><path d="m464.26 192.572v204.676c0 5.687-4.615 10.302-10.302 10.302h-52.426c42.629-63.14 36.211-189.399 33.398-225.28h19.027c5.688 0 10.303 4.615 10.303 10.302z" fill="#ff9700"/><path d="m238.98 287.153v110.095c0 5.69 4.612 10.302 10.302 10.302h204.676c5.69 0 10.302-4.612 10.302-10.302v-59.864c-43.545-16.905-130.194-45.668-225.28-50.231z" fill="#45259c"/><path d="m464.26 306.407v90.841c0 5.687-4.615 10.302-10.302 10.302h-204.676c-5.687 0-10.302-4.615-10.302-10.302v-40.61c38.694-15.02 111.424-39.404 193.859-47.852 10.334-1.061 20.831-1.874 31.421-2.379z" fill="#7a48ff"/><path d="m464.26 306.407v90.841c0 5.687-4.615 10.302-10.302 10.302h-52.426c17.451-25.847 26.682-62.285 31.307-98.763 10.334-1.062 20.831-1.875 31.421-2.38z" fill="#5c32cf"/><g><g><circle cx="245.755" cy="196.037" fill="#ff2953" r="33.608"/><path d="m242.266 215.875c-2.074 0-4.143-.83-5.665-2.47-2.903-3.128-2.72-8.017.407-10.919l6.947-6.448-6.947-6.447c-3.128-2.903-3.311-7.792-.407-10.92 2.902-3.127 7.792-3.31 10.919-.407l13.049 12.111c1.575 1.462 2.471 3.514 2.471 5.663s-.895 4.201-2.471 5.663l-13.049 12.111c-1.488 1.38-3.374 2.063-5.254 2.063z" fill="#ff9293"/></g></g><path d="m139.424 222.949h-91.687c-4.268 0-7.726-3.459-7.726-7.726s3.459-7.726 7.726-7.726h91.686c4.268 0 7.726 3.459 7.726 7.726s-3.458 7.726-7.725 7.726z" fill="#ffb800"/><g fill="#e8e6ed"><path d="m184.752 275.058h-137.015c-4.268 0-7.726-3.459-7.726-7.726s3.459-7.726 7.726-7.726h137.014c4.268 0 7.726 3.459 7.726 7.726.001 4.267-3.458 7.726-7.725 7.726z"/><path d="m184.752 299.942h-137.015c-4.268 0-7.726-3.459-7.726-7.726s3.459-7.726 7.726-7.726h137.014c4.268 0 7.726 3.459 7.726 7.726.001 4.267-3.458 7.726-7.725 7.726z"/><path d="m184.752 324.826h-137.015c-4.268 0-7.726-3.459-7.726-7.726s3.459-7.726 7.726-7.726h137.014c4.268 0 7.726 3.459 7.726 7.726.001 4.267-3.458 7.726-7.725 7.726z"/></g><path d="m110.376 378.871h-49.043c-7.509 0-13.595-6.087-13.595-13.595 0-7.509 6.087-13.595 13.595-13.595h49.043c7.509 0 13.595 6.087 13.595 13.595 0 7.508-6.087 13.595-13.595 13.595z" fill="#ff2953"/></g></g></svg>