<svg xmlns="http://www.w3.org/2000/svg" xmlns:xlink="http://www.w3.org/1999/xlink" width="348" height="269" viewBox="0 0 348 269">
  <defs>
    <clipPath id="clip-path">
      <rect id="Rectangle_19" data-name="Rectangle 19" width="348" height="269" transform="translate(234 4167)" fill="#fff" stroke="#707070" stroke-width="1"/>
    </clipPath>
    <clipPath id="clip-path-2">
      <rect id="Rectangle_16" data-name="Rectangle 16" width="191" height="147" transform="translate(306 4568)" fill="#fff" stroke="#707070" stroke-width="1"/>
    </clipPath>
  </defs>
  <g id="Group_41" data-name="Group 41" transform="translate(-786 -3746)">
    <g id="Mask_Group_15" data-name="Mask Group 15" transform="translate(552 -421)" clip-path="url(#clip-path)">
      <g id="janela-hospedagem" transform="translate(234 4127.5)">
        <g id="Group_40" data-name="Group 40">
          <path id="Path_278" data-name="Path 278" d="M348,49.371V298.629a7,7,0,0,1-7,7H7a7,7,0,0,1-7-7V49.371a7,7,0,0,1,7-7H341A7,7,0,0,1,348,49.371Z" fill="#b7bbbd"/>
          <path id="Path_279" data-name="Path 279" d="M348,49.371V298.629a7,7,0,0,1-7,7h-83.87c77.47-67.058,75.748-222.979,73.92-263.261H341a7,7,0,0,1,7,7Z" fill="#6c6f70"/>
          <path id="Path_280" data-name="Path 280" d="M348,49.371V86.5H0V49.371a7,7,0,0,1,7-7H341A7,7,0,0,1,348,49.371Z" fill="#420fab"/>
          <path id="Path_281" data-name="Path 281" d="M348,49.371V86.5H331.314c.574-19.228.161-34.793-.266-44.133H341A7,7,0,0,1,348,49.371Z" fill="#24085e"/>
          <g id="Group_39" data-name="Group 39">
            <path id="Path_282" data-name="Path 282" d="M28.041,69.689h-.08a5.251,5.251,0,0,1,0-10.5h.08a5.251,5.251,0,0,1,0,10.5Z" fill="#24085e"/>
            <path id="Path_283" data-name="Path 283" d="M43.894,69.689h-.079a5.251,5.251,0,0,1,0-10.5h.079a5.251,5.251,0,1,1,0,10.5Z" fill="#24085e"/>
            <path id="Path_284" data-name="Path 284" d="M59.749,69.689H59.67a5.251,5.251,0,0,1,0-10.5h.079a5.251,5.251,0,0,1,0,10.5Z" fill="#24085e"/>
            <path id="Path_285" data-name="Path 285" d="M320.039,69.689h-9.772a5.251,5.251,0,1,1,0-10.5h9.772a5.251,5.251,0,1,1,0,10.5Z" fill="#24085e"/>
          </g>
        </g>
      </g>
    </g>
    <g id="Mask_Group_14" data-name="Mask Group 14" transform="translate(559 -740)" clip-path="url(#clip-path-2)">
      <g id="server" transform="translate(328.24 4568)">
        <path id="Path_256" data-name="Path 256" d="M126.524,46.954c0-.113.017-.222.017-.334a46.594,46.594,0,0,0-88.9-19.543A32.9,32.9,0,0,0,33.3,26.64a33.3,33.3,0,0,0,0,66.6h89.91a23.258,23.258,0,0,0,3.313-46.286Z" transform="translate(-0.001 0)" fill="#ebe7f6"/>
        <g id="Group_32" data-name="Group 32" transform="translate(0 0)">
          <path id="Path_257" data-name="Path 257" d="M33.3,30.545A33.3,33.3,0,0,0,0,63.845H0v.175c0,.012,0,.023,0,.035v0c0,.013,0,.025,0,.038v.092c0,.013,0,.024,0,.037v0c0,.012,0,.023,0,.035v.091c0,.012,0,.024,0,.035v.051c0,.011,0,.022,0,.033v.009c0,.012,0,.024,0,.036v.008c0,.011,0,.021,0,.032v.3c0,.012,0,.024,0,.036v.175c0,.012,0,.024,0,.036v.008c0,.011,0,.021,0,.032v.007l0,.035v.047l0,.036v.01c0,.012,0,.024,0,.036v0l0,.034v.007l0,.037v.007l0,.034v.005l0,.037v.007l0,.036v0l0,.037v.008l0,.037v0l0,.034v.007c0,.012,0,.024,0,.037V65.7l0,.033v.006c0,.012,0,.025,0,.037v.008l0,.036v0l0,.036v.01l0,.036v.006c0,.01,0,.023,0,.033v.007c0,.012,0,.025,0,.037V66l0,.035v.005l0,.037v.007c0,.025,0,.05,0,.076v.007l0,.037v0c0,.011,0,.023,0,.034v.006c0,.012,0,.025,0,.037v.007c0,.011,0,.024,0,.035v0l0,.037v.007l.006.075v.007l0,.037v0l0,.034v.007l0,.037v.006c0,.013,0,.024,0,.037h0c0,.013,0,.026,0,.039v.005l.007.077v0l0,.038v0l0,.036v0l0,.038v.007c0,.012,0,.024,0,.036v0l0,.038v.007l.007.076v.005l0,.038v0l0,.037v0l0,.038v.006c0,.013,0,.024,0,.037h0c0,.013,0,.026,0,.039v0l.008.078v0l0,.039v0l0,.037v0c0,.013,0,.025,0,.038v0l.008.076v.007l.008.077v0c0,.013,0,.026,0,.039v0l0,.038v0l0,.038v.006l.009.076v.006l0,.037v0l0,.037v0l0,.037v0l0,.036v0l0,.038v.005l.01.077v0c0,.026.007.052.01.077v0l0,.038v0c0,.013,0,.025,0,.038h0L.3,68.3v0l.011.078v0c0,.013,0,.027.005.039h0l.005.039v0l.006.039v0c0,.026.007.052.011.078v0l.011.078v0l.012.08h0l.006.04h0c0,.027.008.053.012.081h0l.012.08h0l.012.081h0l.006.039v0l.012.077v0l.012.078v0c.011.067.022.134.033.2h0c.021.121.042.241.063.362v0A33.264,33.264,0,0,0,11.759,89.24h0q.21.178.422.352h0l.059.048,0,0,.057.046,0,0,.028.023h0l.028.023,0,0,.028.023,0,0,.058.047,0,0,.029.024h0l.028.023,0,0,.028.022,0,0,.028.022h0l.028.022.006,0,.025.02,0,0,.027.022.006,0,.027.022h0l.026.02.007,0,.027.021.005,0,.023.018.006,0,.027.021.006,0,.024.018,0,0,.026.02.007.006.026.02.006,0,.022.017.009.007.025.019.009.007.019.014.009.007.025.019.009.007.02.016.01.008.021.016.011.008.022.017.011.008.017.013.012.009.022.017.012.009.015.011.016.012.019.014.013.01.016.012.015.012.018.014.011.008.02.015.014.011.017.013.011.008.023.017.012.009.015.011.012.009.022.017.014.01.015.011.018.013.017.012.013.01.017.013.018.013.012.009.015.011.021.015.015.011.012.009.023.017.013.01.015.011.01.007.027.02.009.007.016.012.01.007.027.02.009.007.028.021.008.006.017.012.009.006.03.022.007,0,.017.012.01.007.028.02.007.005.018.013.006,0,.03.022.009.006.055.039.007,0,.057.04,0,0,.036.025,0,0,.058.041,0,0,.058.04,0,0,.058.04,0,0,.037.026,0,0,.06.041,0,0,.06.041,0,0,.039.027h0l.061.042h0l.061.041h0a33.2,33.2,0,0,0,7.445,3.753l.042.015.019.007.392.135.023.008.01,0,.169.056h0l.239.078a13.222,13.222,0,0,0,16.567-8.466,13.409,13.409,0,0,0-8.434-16.9l-.067-.023-.023-.008-.043-.016A6.666,6.666,0,0,1,33.3,57.185a6.487,6.487,0,0,1,3.961,1.3l.037.027.023.018.059.046A13.321,13.321,0,0,0,53.968,37.734l-.262-.205-.008-.007-.007-.005-.215-.166h0l-.2-.149-.024-.017-.071-.053a33.182,33.182,0,0,0-10.532-5.254h0l-.079-.023h0l-.039-.011h0l-.079-.022h0l-.24-.067h0l-.079-.022h0l-.12-.032h0l-.12-.032h0l-.08-.021h0l-.12-.032h0l-.12-.031h0l-.078-.02h0l-.077-.019h0l-.038-.009h0l-.077-.019h0l-.039-.01h0l-.079-.019h0l-.077-.019h0l-.038-.009h0l-.078-.018h0l-.039-.009h0l-.079-.018h0l-.078-.018h0l-.038-.009h0l-.079-.018h0l-.04-.009h0l-.039-.009h0l-.039-.009h0l-.078-.017h0l-.039-.008h0l-.079-.017h0l-.039-.008h0l-.04-.008h0l-.039-.008h0l-.076-.016h0l-.038-.008h0l-.08-.016h0l-.04-.008h0l-.04-.008h0l-.039-.008h0l-.078-.015h0l-.039-.007h0l-.039-.007h0l-.039-.007h0l-.078-.015h0l-.037-.007h-.006l-.037-.007h0l-.037-.007h-.007L39.4,31.1h0l-.037-.007h0l-.037-.007h-.007l-.037-.007h0l-.036-.007h-.006l-.038-.007h0l-.038-.007h0l-.037-.007-.008,0-.037-.007h0l-.034-.006h-.007l-.037-.006h-.007l-.037-.006h0l-.035-.006h-.007l-.036-.006H38.85L38.817,31h0l-.036-.006-.009,0-.036-.006h-.006l-.033-.005h-.007l-.036-.006h-.008l-.035-.006h0l-.037-.006H38.56l-.037-.006h-.006l-.035-.006h0l-.037-.006h-.007l-.037-.006h0l-.036-.006h-.007l-.037-.006h-.007l-.035-.005h0l-.037-.006h-.007l-.037-.005h-.006l-.035,0h0l-.037-.005H38.1l-.037-.005h0l-.037-.005h-.006l-.038-.005h0l-.037-.005h0l-.038-.005h-.007l-.037,0h0l-.036,0h0l-.037,0h-.008l-.037,0h0l-.036,0h-.008l-.037,0h-.006l-.036,0h0l-.037,0h-.007l-.038,0h0l-.035,0h-.006l-.037,0h-.009l-.037,0h0l-.037,0H37.34l-.037,0H37.3l-.035,0h0l-.038,0h-.006l-.038,0h0l-.037,0h0l-.037,0h-.007l-.077-.009H37l-.038,0h0l-.038,0h0l-.039,0h-.006l-.039,0h0l-.038,0h0l-.038,0h-.006l-.078-.008h-.006l-.039,0h0l-.037,0h0l-.038,0h-.006l-.079-.007h-.006l-.037,0H36.4l-.036,0h0l-.038,0H36.32l-.037,0h0l-.035,0h-.007l-.037,0h-.008l-.037,0h0l-.036,0h-.009l-.037,0h-.008l-.034,0h0l-.037,0h-.009l-.037,0h0l-.034,0h-.008l-.037,0h-.007l-.037,0h0l-.037,0h-.009l-.036,0h-.009l-.032,0H35.68l-.037,0h-.009l-.037,0h0l-.035,0h-.008l-.037,0h-.008l-.037,0h0l-.039,0h-.007l-.037,0h-.007l-.034,0h-.005l-.037,0h-.009l-.038,0h0l-.038,0h-.007l-.037,0h-.007l-.037,0h0l-.038,0h-.008l-.037,0h-.007l-.036,0h0l-.038,0h-.007l-.077,0h-.008l-.037,0h-.007l-.034,0h-.006l-.037,0h-.01l-.037,0h-.048l-.037,0H33.3Z" transform="translate(-0.001 -3.905)" fill="#d2c9eb"/>
          <path id="Path_258" data-name="Path 258" d="M84.839,0H82.5l-.044,0H82.14l-.032,0h0l-.036,0h-.012l-.024,0h-.3L81.7.1h-.013l-.022,0h-.283l-.017,0h-.017l-.034,0h-.018l-.021,0h-.013l-.022,0h-.013L81.2.14h-.013l-.02,0H81.15l-.018,0h-.017l-.018,0-.018,0h-.017l-.02,0h-.015l-.021,0h-.031L80.9.164h-.015l-.021,0h-.014l-.021,0h-.014l-.02,0h-.016l-.017,0-.018,0-.019,0h-.015l-.02,0h-.015l-.02,0-.016,0-.018,0L80.6.19h-.014L80.517.2H80.5L80.48.2h-.012l-.023,0-.016,0-.019,0-.018,0-.016,0-.019,0-.017,0-.019,0-.015,0-.019,0-.017,0-.018,0-.017,0-.019,0-.015,0-.083.008h0l-.026,0h-.009l-.024,0h-.012l-.022,0h-.013l-.021,0-.014,0-.02,0-.015,0-.02,0-.014,0-.021,0H79.87l-.023,0h-.008l-.119.013h-.01l-.022,0-.014,0-.021,0-.014,0-.022,0-.013,0-.021,0-.014,0-.021,0-.014,0-.022,0H79.5l-.024,0h-.01l-.024,0-.017,0-.017,0-.034,0-.019,0-.015,0-.021,0-.015,0-.019,0-.016,0-.019,0-.016,0-.019,0-.014,0-.021,0-.014,0-.019,0-.016,0-.02,0L79.1.35l-.022,0H79.07l-.119.015h-.007l-.025,0H78.91l-.023,0-.012,0-.022,0-.012,0-.023,0-.011,0-.023,0-.011,0-.023,0-.012,0-.023,0H78.7l-.025,0h0l-.1.013h0l-.027,0h-.008l-.024,0-.012,0-.022,0-.013,0-.022,0-.012,0-.022,0-.012,0-.023,0-.011,0-.022,0-.013,0-.023,0h0l-.125.017h0l-.025,0-.01,0-.022,0-.012,0-.022,0-.012,0-.023,0h-.008l-.027,0h-.007l-.027,0h-.007l-.028,0h0l-.125.019h0l-.029,0h0l-.03,0h0l-.029,0h0l-.027,0h-.007l-.027,0h-.005l-.028,0h0l-.063.01h0l-.128.02h0l-.027,0h-.007l-.025,0-.01,0-.024,0-.01,0-.023,0-.012,0-.022,0-.009,0-.026,0h-.007l-.187.031h-.007L77,.656h-.007l-.024,0-.01,0-.025,0h-.007l-.027,0h-.006l-.029,0h0l-.031.005h0l-.193.034h0L76.6.725h0l-.03.005h0l-.028,0h0l-.028,0H76.5l-.028,0h0l-.19.035h0l-.024,0-.011,0-.024,0L76.2.8l-.025,0h-.007l-.028.005h0L76.11.814h0l-.257.049h0l-.03.006h0l-.03.006h0c-.239.047-.475.1-.712.146h0l-.387.084h0A46.667,46.667,0,0,0,38.686,40c-.006.044-.012.087-.018.131l-.011.074c-.018.13-.036.263-.052.394-.006.042-.011.085-.016.127v.006l-.017.137a13.32,13.32,0,0,0,26.448,3.19l.02-.156.008-.064c0-.03.009-.061.013-.091A20.045,20.045,0,0,1,84.839,26.64a19.68,19.68,0,0,1,9.679,2.491l.08.044.057.032.136.078a13.32,13.32,0,0,0,13.439-23l-.12-.069-.005,0-.156-.09-.008,0-.027-.015-.015-.009-.015-.008-.233-.131-.066-.037-.107-.061-.076-.042h0l-.028-.016,0,0-.117-.065-.005,0-.027-.015,0,0-.118-.064-.005,0-.027-.015-.005,0-.119-.065h0A46.292,46.292,0,0,0,90.777.375h0L90.412.33h0L90.267.313h0l-.035,0h0L90.121.3h0l-.033,0h-.006l-.034,0h0l-.1-.012h-.008l-.03,0h-.01L89.79.26h0l-.031,0h-.01l-.03,0h-.008l-.094-.01H89.6l-.028,0h-.012l-.028,0h-.008L89.461.227h0l-.031,0h-.008l-.032,0H89.38l-.1-.009h-.01l-.028,0h-.012L89.2.2h-.008L89.1.193h-.012l-.027,0-.014,0-.027,0h-.012l-.054,0h-.011l-.027,0H88.9l-.026,0H88.86L88.771.164h-.016l-.025,0h-.017l-.026,0h-.012l-.058,0h-.007l-.026,0h-.017l-.025,0-.018,0-.023,0-.022,0-.035,0-.023,0-.021,0-.021,0-.022,0-.021,0L88.253.123h-.017l-.023,0h-.019l-.023,0-.021,0-.038,0-.021,0-.024,0h-.019l-.023,0h-.019l-.024,0h-.015l-.048,0H87.9l-.026,0h-.017l-.023,0h-.021l-.038,0H87.63l-.04,0h-.128l-.039,0h-.106l-.027,0h-.015l-.041,0h-.105l-.037,0h-.15l-.041,0h-.154l-.036,0h-.1l-.042,0H84.839Z" transform="translate(-4.92)" fill="#d2c9eb"/>
        </g>
        <g id="Group_33" data-name="Group 33" transform="translate(15.666 13.32)">
          <path id="Path_259" data-name="Path 259" d="M29.389,63.7a6.7,6.7,0,0,0,.846-1.035l.067-.1a6.735,6.735,0,0,0-1.832-9.283,6.586,6.586,0,0,0-8.356.786,6.673,6.673,0,0,0-.734.873l-.11.161-.007.01-.015.022h0l-.017.026h0l-.016.024,0,0-.032.048,0,.007-.01.016-.006.009-.008.013-.013.02-.006.009-.008.013-.007.01-.008.012-.014.021,0,0-.015.022h0l-.11.17a6.586,6.586,0,0,0,2,9.02,6.737,6.737,0,0,0,8.419-.882ZM49.96,80.409l.021-.021.007-.007L50,80.366l.008-.008.013-.014.008-.008.013-.014.008-.008.015-.015.007-.007.021-.022,0,0,.019-.019.007-.007.014-.014.008-.009.013-.013.008-.008.013-.013.008-.008.015-.016.006-.006.021-.022.005-.006.016-.016.007-.007.014-.015.008-.008.013-.013.008-.009.012-.013.009-.009.015-.016.006-.006.021-.022.006-.006.015-.016.007-.008.013-.014.008-.008.013-.014.007-.008.014-.015.007-.007.017-.018,0,0,.02-.022.007-.008.013-.014.008-.008.013-.014.008-.009.013-.014.007-.007.014-.015.007-.007.04-.044.007-.007.013-.015.008-.009.012-.013.009-.01.012-.013.008-.009.014-.015.006-.007.02-.022,0,0,.018-.02.007-.008.013-.014.008-.009.012-.014.007-.009.012-.014.007-.008.014-.016.006-.007.02-.022,0,0,.017-.019.007-.007L50.9,79.4l.007-.008.012-.014.008-.009.012-.014.007-.008.014-.016.006-.007.019-.022,0-.005L51,79.282l.007-.008.012-.014.008-.009.012-.014.007-.009.013-.015.007-.007.016-.019,0,0,.019-.023,0-.006.014-.017.007-.008.013-.015.007-.008.012-.015.007-.008.013-.016.006-.007.018-.022h0l.019-.023.006-.007.012-.015.007-.009.012-.014.007-.008.012-.015.007-.008.012-.015.006-.008.015-.019.008-.01.014-.017.007-.008.012-.015.007-.009.012-.014.007-.009.012-.015.007-.008.014-.017,0-.005.019-.023,0,0,.015-.018.006-.008.012-.015.008-.01.011-.013.008-.01.011-.014.007-.009.014-.018,0,0,.018-.023,0-.006.014-.017.006-.008.012-.015.007-.009.011-.015.007-.009.011-.015.007-.009.015-.019,0,0,.018-.024,0,0,.014-.018.006-.008.012-.015.007-.009.011-.015.006-.008.012-.017.005-.007.017-.022h0L51.8,78.3l.005-.007.013-.017.006-.008.011-.015.007-.009.011-.015.007-.009.012-.016.006-.007.035-.047,0-.007.012-.017.006-.009.011-.015.007-.009.011-.015.006-.009.013-.018,0-.006.018-.024h0l.017-.023.006-.008.012-.016.006-.008.011-.015.006-.008.012-.017,0-.007.013-.019,0-.005.017-.024,0,0,.015-.021,0-.007.012-.017.005-.007.012-.017.006-.008.012-.018,0-.006.015-.022,0,0,.017-.024,0,0,.013-.019.006-.008.011-.016.006-.008.011-.016.006-.008.012-.017,0-.007.016-.024h0l.017-.025,0-.006.012-.018.006-.008.011-.016.006-.009.011-.016.006-.009.011-.016.005-.007.016-.024h0l.017-.024,0-.007.012-.017.006-.009.01-.015.006-.009.01-.015.006-.009.011-.017.005-.008.016-.024,0-.005.012-.019.005-.008.011-.017.006-.009.01-.016.006-.009.01-.016.006-.009.012-.019,0,0,.016-.025,0,0,.013-.02,0-.007.011-.017.006-.008.011-.017.005-.008.011-.017,0-.007.014-.022,0,0,.016-.025,0,0,.013-.021,0-.007.011-.017.006-.009.01-.016.005-.008.011-.017.005-.008.014-.022v0l.016-.025,0-.006.012-.019,0-.007.01-.017.006-.009.01-.017,0-.008.012-.019,0-.006.03-.05,0-.008.01-.017.006-.009.01-.016.005-.009.01-.017,0-.008.012-.019,0-.006.03-.05,0-.008.01-.017.005-.009.009-.016.006-.009.01-.017,0-.008.012-.021,0,0,.03-.052,0,0,.012-.02,0-.007.011-.019,0-.007.012-.02,0-.005.013-.023v0l.015-.026h0l.014-.024,0-.006.011-.02,0-.007.011-.018,0-.007.011-.02,0-.006.029-.052,0,0,.012-.021,0-.008.01-.018,0-.007.01-.019,0-.007.011-.02,0-.005.029-.052,0,0,.012-.022,0-.007.01-.019,0-.007.01-.018,0-.008.011-.02,0-.006.028-.052,0-.006.011-.02,0-.008.01-.018,0-.007.01-.019,0-.007.012-.023v0l.014-.026,0,0,.012-.022,0-.007.009-.018,0-.009.009-.017,0-.008.009-.018,0-.008.011-.022,0,0,.013-.027v0l.012-.023,0-.008.009-.017,0-.009.009-.017,0-.008.01-.019,0-.007.013-.025h0l.013-.027,0,0,.011-.022,0-.007.009-.019,0-.009.009-.017,0-.009.009-.018,0-.007.026-.052,0,0,.011-.022,0-.007.01-.02,0-.007L53.818,75l0-.007.011-.022,0,0,.026-.053,0,0,.011-.022,0-.006.01-.021,0-.006.01-.022,0,0,.011-.024v0l.025-.053,0-.005.01-.021,0-.008.008-.018,0-.009.009-.019,0-.007.011-.023v0L54,74.612h0l.012-.025,0-.007.009-.02,0-.007.009-.019,0-.007.009-.021,0-.006.012-.026h0l.012-.028h0l.011-.025,0-.006.009-.02,0-.007.008-.019,0-.008.009-.02,0-.007.012-.026h0l.012-.027,0,0,.009-.022,0-.008.008-.019,0-.008.008-.019,0-.007.01-.022,0,0,.023-.054,0,0,.009-.022,0-.007.008-.02,0-.008.008-.019,0-.008L54.27,74l0,0,.022-.054,0-.006.008-.02,0-.009.007-.018,0-.009.007-.018,0-.009.008-.021,0-.006.011-.027,0-.005.008-.021,0-.009.007-.018,0-.01.007-.018,0-.008.007-.019,0-.008.01-.024v0l.011-.027,0,0,.009-.023,0-.007.007-.019,0-.009.007-.019,0-.008.008-.021,0-.006.021-.054,0,0,.008-.022,0-.007.008-.02,0-.008.007-.02,0-.007.008-.02,0-.007.02-.054,0,0,.008-.023,0-.007.007-.02,0-.008.007-.021,0-.006.008-.023,0,0,.02-.055,0-.006.007-.021,0-.008.007-.019,0-.009.007-.019,0-.008.008-.022,0-.005.01-.027h0l.009-.026,0-.006.007-.021,0-.008.007-.018,0-.009.007-.019,0-.008.008-.024v0l.01-.028v0l.008-.024,0-.008.007-.02,0-.008.007-.02,0-.008.007-.021,0-.007.008-.025v0l.009-.028v0l.008-.024,0-.007.007-.02,0-.007.007-.02,0-.007.007-.022,0-.006.018-.055,0-.006.007-.021,0-.009.006-.018,0-.009.006-.019,0-.008.007-.022v0l.017-.056,0-.006.007-.021,0-.008.006-.02,0-.008.006-.019,0-.008.007-.023v0l.017-.056,0-.007.006-.02,0-.009.006-.019,0-.008.006-.02,0-.008L54.984,72v0l.008-.027,0-.006L55,71.943l0-.007.006-.021,0-.008.006-.019,0-.008.006-.021,0-.007.016-.056v0l.007-.025,0-.006.006-.022,0-.007.006-.021,0-.007.006-.022v0l.016-.056v0L55.1,71.6l0-.008.005-.02,0-.008.005-.02,0-.008.005-.02,0-.007.015-.056v0l.006-.022,0-.008.005-.02,0-.008.005-.02,0-.007.006-.023v0l.014-.055,0-.008,0-.02,0-.008,0-.02,0-.008,0-.02,0-.007.006-.024v0l.007-.028v0l.006-.025,0-.008,0-.019,0-.009,0-.019,0-.01,0-.02,0-.007.006-.027h0l.007-.029v0l.006-.025,0-.007,0-.02,0-.008,0-.02,0-.008,0-.021,0-.007.006-.026h0l.007-.028V70.77l0-.022,0-.007,0-.02,0-.009,0-.019,0-.009,0-.021v-.006l.012-.056,0-.007,0-.02,0-.01,0-.019,0-.009,0-.019,0-.009,0-.022V70.48l.006-.028h0l.006-.027,0-.008,0-.02,0-.01,0-.018,0-.01,0-.019,0-.01,0-.021V70.3l.006-.028V70.27l0-.023,0-.008,0-.019,0-.01,0-.018,0-.009,0-.019,0-.008,0-.024v0l.005-.027,0-.009,0-.018,0-.01,0-.018,0-.011,0-.017,0-.011,0-.017,0-.011,0-.024v0l.005-.028,0-.008,0-.019,0-.011,0-.017,0-.012,0-.017,0-.01,0-.019,0-.009c0-.018.007-.037.01-.056v-.007l0-.021,0-.009,0-.018,0-.011,0-.018,0-.01,0-.019,0-.01,0-.027h0l0-.026,0-.009,0-.019,0-.01,0-.017,0-.011,0-.018,0-.01,0-.022v-.006l0-.028v0l0-.023,0-.01,0-.018,0-.01,0-.019,0-.01,0-.019,0-.009,0-.021v-.007l0-.028v-.005l0-.022,0-.01,0-.018,0-.011,0-.016,0-.012,0-.018,0-.01,0-.021V69.09l0-.027v-.009l0-.019,0-.012,0-.017,0-.011,0-.017,0-.011,0-.019V68.94l0-.025v0l0-.027v-.009l0-.019v-.011l0-.018v-.011l0-.017,0-.011,0-.019v-.009l0-.028h0l0-.027V68.7l0-.017,0-.012,0-.016v-.011l0-.018v-.01l0-.022v-.005c0-.01,0-.018,0-.028v0l0-.025V68.52l0-.02v-.011l0-.017v-.012l0-.016v-.012l0-.018V68.4l0-.027v-.008l0-.02v-.011l0-.017v-.012l0-.015v-.013l0-.016v-.012l0-.018v-.009l0-.027v-.013l0-.015v-.012l0-.016V68.13l0-.016V68.1l0-.016v-.012l0-.022v-.005l0-.028v-.01l0-.018v-.068l0-.018V67.9l0-.023v-.011l0-.02v-.124l0-.027v-.152l0-.027v-.826c0-.02,0-.04,0-.061v-.118c0-.02,0-.041,0-.061v-.289h0c0-.016,0-.032,0-.048v-.13h0v-.156l0-.07V65.64l0-.066v-.112l0-.068v-.107c0-.023,0-.047,0-.07V65.13c0-.023,0-.047,0-.07v-.107c0-.024,0-.048,0-.072h0v-.027l0-.02v-.006l0-.021V64.8l0-.022h0c0-.025,0-.05-.006-.075h0l0-.022v0l0-.021v-.006l0-.021v0c0-.042-.007-.081-.011-.123v0l0-.022v0l0-.022v0l-.009-.1h0l0-.024v0l0-.023v0c0-.05-.01-.1-.016-.15v0l0-.024v0c0-.042-.009-.083-.014-.124l0,0,0-.022v0l0-.022v0c0-.041-.01-.082-.015-.124v0l0-.023v0l0-.023v0c0-.041-.011-.082-.016-.123v0l0-.021v0l0-.022v0c-.006-.042-.011-.082-.017-.124h0l0-.024v0c-.007-.05-.015-.1-.022-.15h0l0-.024h0c-.026-.169-.053-.337-.084-.5h0a19.886,19.886,0,0,0-2.606-6.873,6.66,6.66,0,0,0-11.365,6.946,6.663,6.663,0,0,1-10.4,8.171l-.135-.138a6.771,6.771,0,0,0-9.481-.195c-.045.043-.09.086-.133.13a6.549,6.549,0,0,0-.249,9.018l.19.2h0l.021.022,0,0,.013.014.013.013h0c.066.07.133.138.2.207h0l.021.021,0,0,.019.019.007.007.016.017.009.009.014.014.013.013.01.01.024.024a19.98,19.98,0,0,0,28.256,0Z" transform="translate(-17.963 -19.986)" fill="#f4f1fa"/>
          <path id="Path_260" data-name="Path 260" d="M89.651,15.273h-.1l-.272,0h0l-.238,0A13.233,13.233,0,0,0,76.108,28.666,13.407,13.407,0,0,0,89.5,41.913h.152a6.665,6.665,0,0,1,1.923,13.045l-.044.013-.024.007L91.438,55a13.409,13.409,0,0,0-9.29,16.447,13.222,13.222,0,0,0,16.116,9.3l.233-.063.007,0,.353-.1h0l.243-.071.024-.007.053-.016a33.081,33.081,0,0,0,5.678-2.283h0l.111-.057h0l.066-.034h0l.11-.058h0l.107-.057.006,0,.106-.057,0,0,.063-.034.007,0,.035-.019.007,0,.06-.032.009,0,.032-.018.008,0,.02-.011,0,0,.039-.021.006,0,.037-.02,0,0,.021-.012h0l.04-.022.005,0,.062-.034.007,0,.032-.018.01-.006.06-.034.006,0,.035-.02.007,0,.02-.011h0l.039-.022.01-.006.033-.019.007,0,.02-.011.006,0,.034-.019.009,0,.031-.017.01-.006.017-.01.014-.008.025-.015.012-.007.017-.01.022-.013.017-.01.012-.007.029-.017.01-.006.018-.01.013-.007.027-.016.011-.007.029-.017.01-.006.019-.011.007,0,.032-.018.012-.007.022-.012.017-.01.017-.01.013-.008.025-.015.014-.008.018-.011.02-.012.016-.01.015-.009.022-.013.013-.008.017-.01.023-.014.015-.009.017-.01.02-.012.018-.011.013-.008.025-.015.013-.008.017-.01.016-.01.021-.013L107,77l.019-.012.019-.012.015-.009.017-.01.022-.014.013-.008.019-.012.017-.011.018-.011.012-.007.025-.016.012-.008.02-.012.014-.008.022-.014.012-.007.026-.016.012-.007.018-.012.014-.009.023-.015.012-.007.026-.016.011-.007.02-.013.011-.007.026-.017.011-.007.026-.017.008,0,.023-.015.01-.006.027-.017.01-.007.022-.014.014-.009.02-.013.012-.008.026-.017.01-.007.022-.014.008-.006.027-.017.01-.007.027-.018.008-.005.023-.015.008-.006.027-.018.009-.006.027-.018.008-.005.024-.016.007,0,.028-.018.008-.006.026-.017.007,0,.025-.017.009-.006.027-.018.007,0,.026-.017,0,0,.028-.019.009-.006.027-.018.008-.005.025-.017,0,0,.03-.02.006,0,.03-.021h0l.028-.019.006,0,.029-.02.006,0,.029-.02,0,0,.027-.018.007,0,.028-.019.007,0,.028-.019h0l.029-.02.007,0,.029-.02.005,0,.027-.019,0,0,.03-.021.006,0,.029-.02.005,0,.026-.018.006,0,.027-.019.009-.006.028-.019,0,0,.026-.018.007-.005.028-.02.007,0,.027-.019,0,0,.029-.021.006,0,.029-.021,0,0,.03-.021h0l.03-.021.007,0,.029-.021,0,0,.028-.02,0,0,.03-.021,0,0,.03-.022,0,0,.028-.021,0,0,.03-.022,0,0,.061-.044,0,0,.03-.022,0,0,.029-.022h0l.03-.022,0,0,.03-.022,0,0,.062-.046,0,0,.031-.023h0l.03-.022,0,0,.03-.022,0,0,.063-.047,0,0,.031-.023,0,0,.062-.047,0,0,.031-.023h0l.03-.023,0,0,.03-.023,0,0,.031-.024h0l.032-.024h0l.031-.024,0,0,.063-.048h0l.031-.024,0,0,.063-.049h0l.032-.025h0l.063-.05,0,0,.1-.075h0l.1-.076h0l.063-.05h0l.191-.154h0l.095-.077h0l.063-.051h0l.031-.026h0l.252-.209h0l.249-.211h0a33.374,33.374,0,0,0,9.352-13.126h0l.045-.116h0l.045-.116h0l.029-.077h0l.044-.116h0l.044-.117h0l.029-.078h0l.057-.156h0l.028-.076v0l.028-.077h0l.013-.038v0l.027-.077h0l.013-.038v0l.027-.077v0l.013-.038h0l.027-.077v0l.013-.038h0l.013-.039h0l.013-.037,0,0,.039-.116h0l.026-.078v0l.013-.038v0l.025-.076v0l.012-.038h0l.026-.078v0l.038-.118v0l.025-.077v0l.037-.119h0l.012-.04h0l.025-.079h0l.037-.119v0l.024-.078h0l.012-.038v0l.023-.076v0l.011-.038v0l.023-.077v0l.011-.038h0l.023-.078v0l.022-.077v0l.011-.038v0c.007-.026.015-.053.022-.079h0l.011-.04h0l.022-.078v0l.011-.038h0l.022-.078v0l.011-.038v0l.01-.038v0l.011-.038v0l.021-.077v0l.01-.037v0l.02-.076v0l.01-.038v0l.021-.078v0l.021-.079v0l.01-.039v0l.02-.078v0l.009-.037,0-.007.019-.075,0-.006.009-.037v0l.009-.038h0l.009-.038v0l.009-.038v0l.01-.039h0l.009-.038,0-.006.018-.076v0l.009-.038v0l.018-.077v0l.009-.038v0c.006-.026.012-.051.018-.076l0-.006.009-.038v0l.008-.037v0l.008-.038v-.005l.009-.038h0l.009-.039v0l.009-.039v0l.017-.077v0l.008-.038v0l.017-.078v0l.008-.038v0l.008-.039h0l.008-.039v0l.008-.039h0l.008-.038v0l.008-.037V55.4l.016-.079v0l.008-.04v0l.016-.08v0l.008-.039v0l.008-.039v0l.008-.039v0l.007-.039v0l.007-.039v0l.007-.038v-.006l.015-.078v0l.007-.038v-.005c0-.026.01-.052.015-.078v0l.007-.038v0l.014-.078V54.6c0-.013,0-.025.007-.038v0l.007-.037v0l.007-.038v0l.007-.039v0l.006-.036v-.006l.007-.037v-.006l.007-.038h0l.007-.038v-.007l.006-.037v-.007c0-.012,0-.025.006-.036v0l.007-.038v-.007l.006-.036V54.1l.006-.036v0l.006-.038v-.007l.006-.037v0l.006-.036v-.006l.006-.037v-.007l.012-.077V53.8c0-.012,0-.025.006-.037V53.76l.012-.078v0l.006-.039v0l.006-.04h0c0-.013,0-.026.006-.039V53.55l.006-.038v0l.005-.036v-.005l.006-.037v-.008l.006-.037v0c0-.012,0-.025.005-.037v-.006l.005-.037v-.007l.011-.077V53.21l.005-.037v-.007l0-.036v0l0-.037v-.008c0-.012,0-.024,0-.037v-.006l0-.035V53c0-.012,0-.024,0-.037v-.008l0-.037v0l0-.036v-.006l.005-.038v-.007l0-.039h0l0-.036v-.009l0-.037V52.7l0-.036v0l0-.038v-.007l0-.038v-.007c0-.012,0-.024,0-.036v0l0-.038v-.007l0-.038v0l0-.036V52.4l0-.039v-.006c0-.013,0-.026,0-.04h0l0-.039v-.005l0-.038v-.006l.008-.078v-.007l0-.038V52.1l0-.037v0l0-.039v-.006c0-.013,0-.026,0-.039v0c0-.012,0-.027,0-.039v0c0-.013,0-.025,0-.038v-.008l0-.038v0l0-.038V51.8l0-.038v-.007l0-.039v0c0-.012,0-.025,0-.037v-.007c0-.012,0-.025,0-.037v-.007l0-.036v0l0-.038v-.008l0-.037V51.5c0-.012,0-.023,0-.035v-.006l0-.037v-.009l0-.037v-.006c0-.011,0-.024,0-.035v-.007l0-.037v-.008c0-.012,0-.026,0-.039h0c0-.012,0-.026,0-.038v-.007l0-.038v-.006l0-.039h0c0-.012,0-.026,0-.039v-.008l0-.037v-.007l0-.035v-.005l0-.038v-.008l0-.038v0l0-.036v-.007c0-.013,0-.025,0-.038V50.8c0-.013,0-.025,0-.039v0l0-.038v-.007l0-.037v-.008l0-.037v0c0-.013,0-.026,0-.038v-.008c0-.013,0-.025,0-.038v-.006l0-.037v0c0-.014,0-.026,0-.039v-.007l0-.039v-.006l0-.036v-.005l0-.038v-.009l0-.039h0l0-.039v-.006l0-.039v-.007l0-.08v-.007l0-.039v-.007l0-.037v0l0-.037v-.01l0-.037v-.048l0-.038v-.007l0-.039v-.047c0-.013,0-.025,0-.038v-.18c0-.013,0-.026,0-.039v-.272c0-.013,0-.026,0-.039v-.133c0-.013,0-.027,0-.039v-.053c0-.012,0-.024,0-.036v0c0-.014,0-.025,0-.039v-.094c0-.013,0-.026,0-.038v-.18a33.306,33.306,0,0,0-33.3-33.3Z" transform="translate(-25.397 -15.273)" fill="#f4f1fa"/>
        </g>
        <path id="Path_261" data-name="Path 261" d="M137.855,53.454a23.31,23.31,0,0,0-23.31,23.31v.491l0,.07v.01c0,.008,0,.015,0,.024v.42l0,.034h0l0,.033v.117l0,.034v.007l0,.027v.083l0,.027v.007l0,.034v.01l0,.024v.012l0,.022v.013l0,.023V78.3l0,.034v0l0,.031v.012l0,.022v.014l0,.022v.013l0,.024v.01l0,.034v.009l0,.025v.013l0,.021V78.6l0,.022v.012l0,.028v.006l0,.034v.009l0,.025v.012l0,.022v.013l0,.023v.012l0,.032v.007l0,.028V78.9l0,.022v.013l0,.022v.012l0,.024V79l0,.033v.011l0,.023,0,.014,0,.02,0,.014,0,.02,0,.015,0,.024v.009l0,.033v.012l0,.022,0,.014,0,.02,0,.015,0,.021v.012l0,.03v.011l0,.025,0,.013,0,.021,0,.014,0,.021,0,.013,0,.022v.011l0,.033v.009l0,.024,0,.013,0,.02,0,.014,0,.022,0,.012,0,.029v0l0,.033,0,.012,0,.022,0,.014,0,.02,0,.013,0,.022,0,.012,0,.032v.009l0,.026,0,.013,0,.021,0,.013,0,.02,0,.014,0,.022,0,.012,0,.032,0,.01,0,.023,0,.013,0,.021,0,.013,0,.022,0,.012,0,.027v.007l0,.033,0,.012,0,.022,0,.014,0,.02,0,.015,0,.02,0,.013,0,.027,0,.014,0,.025,0,.012,0,.022,0,.013,0,.021,0,.013,0,.024,0,.009.005.033,0,.009,0,.024,0,.012,0,.022,0,.011,0,.024,0,.01,0,.028v0l.006.033,0,.011,0,.023,0,.012,0,.021,0,.014,0,.02,0,.013.006.031,0,.009,0,.024,0,.013,0,.02,0,.015,0,.019,0,.014,0,.02,0,.013.006.031,0,.012,0,.021,0,.014,0,.02,0,.014,0,.019,0,.014,0,.022,0,.013.006.028,0,.014,0,.019,0,.015,0,.018,0,.015,0,.019,0,.013.005.026,0,.017,0,.02,0,.016,0,.017,0,.016,0,.017,0,.015,0,.019,0,.013.007.031,0,.013,0,.02,0,.015,0,.017,0,.016,0,.017,0,.016,0,.021,0,.014.006.027,0,.015,0,.017,0,.015,0,.018,0,.015,0,.02,0,.013.006.028,0,.014,0,.021,0,.014,0,.019,0,.015,0,.017,0,.015,0,.019,0,.014.007.031,0,.011,0,.021,0,.014,0,.018,0,.014,0,.019,0,.014,0,.021,0,.018.006.023,0,.014,0,.018,0,.014,0,.018,0,.015,0,.017,0,.014.007.03,0,.011.006.022,0,.013,0,.018,0,.015,0,.018,0,.014.005.021,0,.011.008.031,0,.014,0,.018,0,.016,0,.017,0,.015,0,.018,0,.014.006.021,0,.017.006.024,0,.014,0,.018,0,.014,0,.018,0,.014,0,.018,0,.014.007.028,0,.014.005.02,0,.014,0,.018,0,.015,0,.018,0,.014.006.02,0,.013.008.03,0,.014,0,.017,0,.015,0,.017,0,.016,0,.016,0,.016,0,.018.007.022.006.021,0,.014,0,.018,0,.014,0,.017,0,.015,0,.017,0,.014.008.027,0,.014.006.019,0,.015,0,.017,0,.015,0,.017,0,.015,0,.017,0,.015.009.029,0,.015,0,.017,0,.016,0,.015,0,.016,0,.015,0,.016,0,.016.009.028,0,.015.006.017,0,.014.005.017,0,.015,0,.016,0,.016,0,.015.007.022.007.022.005.017,0,.015.005.017,0,.015,0,.016,0,.016,0,.015.008.024.007.021,0,.015.005.016,0,.016.005.016,0,.015.005.016,0,.015.006.019.007.022.007.019.005.016.005.015.005.016.005.015.005.016.005.015,0,.015.008.024.006.018.007.019,0,.014.005.016.006.016.005.015.005.015.006.017,0,.014.01.029,0,.014.006.016.006.016.005.015.005.015.006.017.005.015.006.017.01.027.005.015.006.017,0,.014.006.017,0,.013.006.017,0,.014.006.017,0,.012.012.033,0,.013.007.017,0,.013.006.017,0,.013.006.017,0,.013.014.038,0,.006.007.018,0,.012.007.017.005.014.006.017,0,.013.007.018,0,.01.013.034,0,.012.007.017,0,.013.007.017.005.014.007.017.006.015.006.015.007.017.011.029,0,.012.007.018,0,.012.007.018,0,.012.007.018,0,.011.015.039,0,.007.007.017.005.013.007.018,0,.012.007.018,0,.012.007.019,0,.007.017.041,0,.007.007.018,0,.012.007.017.005.013.007.017.005.013.007.017,0,.005.017.04,0,.011.007.018,0,.012.007.018,0,.011.008.019,0,.007.02.047h0l.008.019,0,.011.008.018,0,.012.007.018,0,.011.008.018,0,.009.016.037,0,.009.008.018,0,.012.007.017.006.012.007.017,0,.011.028.063,0,.011.008.017,0,.011.008.018,0,.011.008.018,0,.01.029.065,0,.009.009.019,0,.01.008.018,0,.011.008.019,0,.007.018.04,0,.007.008.018.005.012.008.017.005.011.008.018,0,.01.03.064,0,.009.008.018.005.011.008.018.005.011.008.017.005.011.019.04,0,0,.009.018,0,.01.008.017.006.012.008.017,0,.01.009.019v0l.021.044,0,.008.009.018,0,.01.009.018,0,.01.009.018,0,.009.032.065,0,.008.009.019,0,.009.009.018.005.01.009.018,0,.008.032.064,0,.01.009.018,0,.01.009.018.005.01.009.018,0,.006.021.041,0,.007.01.019,0,.009.009.018,0,.01.009.018,0,.01.032.063,0,.009.009.017.006.011.009.018,0,.009.01.019,0,.006.024.045h0l.01.019,0,.009.009.018.006.011.009.017.005.01.01.018,0,.006.021.039,0,.007.01.019,0,.009.01.018,0,.009.011.02,0,.006.036.065,0,.008.01.018,0,.009.01.019,0,.008.011.019,0,.006.037.066,0,.007.011.019,0,.008.01.018.005.009.011.019h0l.027.047,0,0,.011.019.005.009.01.018,0,.009.011.019,0,.007.037.066,0,.006.011.019,0,.008.011.019,0,.007.011.019,0,0,.038.066,0,.007.011.019.005.009.011.018,0,.007.04.067,0,0,.012.02,0,.006.012.02,0,.007.012.02,0,0,.041.068,0,0,.012.021,0,.006.012.021,0,.005.055.091,0,.007.012.019,0,.007.012.019,0,.006.056.09,0,.006.012.02,0,.007.012.019,0,.007.041.064,0,0,.012.018.006.009.011.018,0,.008.012.019,0,0,.029.045h0l.012.019,0,.007.012.018,0,.008.012.018,0,.006.042.065,0,0,.013.02,0,.007.012.019,0,.007.013.02,0,0,.044.066,0,.005.013.019,0,.006.013.02,0,.006.014.02h0l.046.069,0,0,.014.021,0,0,.014.02,0,0,.061.089,0,.006.013.019,0,.006.014.02,0,0,.046.066,0,0,.013.019,0,.007.013.018,0,.007.013.018,0,0,.044.063,0,.006.013.018,0,.007.013.019,0,0,.046.065,0,0,.014.019,0,.006.013.019,0,.006.014.02v0l.047.065,0,0,.013.018,0,.007.013.018.005.007.013.018,0,0,.046.063,0,.007.013.018,0,.006.014.019,0,0,.049.065h0l.014.019,0,.006.013.018.005.007.013.018,0,.006.046.06,0,.006.013.017.007.009.012.016.006.008.013.017,0,0,.048.062,0,0L119.4,91l0,.006.014.018,0,.005.048.062,0,0,.015.019,0,.006.014.018.005.007.014.018,0,0,.048.061.005.007.014.017,0,.006.014.018,0,.006.014.018,0,0,.049.062,0,.006.015.018,0,.006.014.017,0,.006.05.062h0l.015.018,0,.006.014.017,0,.005.015.018,0,0,.051.062,0,0,.015.018,0,.006.015.018,0,0,.016.019h0l.052.062,0,0,.015.017.006.007.015.017,0,0,.051.061,0,0,.016.018,0,.005.015.017.005.006.015.018,0,0,.052.06,0,0,.016.018,0,0,.016.019,0,0,.07.081,0,.006.015.017,0,.006.015.017,0,0,.054.061h0l.016.018,0,.006.015.017.006.006.015.017,0,.005.051.057,0,0,.016.017,0,.006.016.018,0,0,.073.08,0,0,.016.017,0,.005.016.018,0,0,.056.061v0l.017.018,0,0,.016.017.005.006.016.017h0l.055.059,0,0,.016.017,0,0,.017.017,0,0,.075.079,0,0,.017.018,0,0,.017.018,0,0,.056.059,0,0,.016.017.006.006.016.017,0,0,.017.018h0l.059.06,0,0,.017.018,0,0,.017.018,0,0,.077.078,0,0,.017.017,0,0,.017.018h0l.058.058,0,0,.017.017,0,0,.017.017,0,0,.077.076,0,0,.017.017,0,0,.017.017,0,0,.076.074,0,0,.017.016.005,0,.017.016,0,0,.058.056h0l.018.017,0,0,.017.017,0,0,.018.017,0,0,.058.055,0,0,.016.015.007.006.017.015,0,0,.078.073,0,0,.017.016.005,0,.017.016,0,0,.059.054,0,0,.018.017,0,0,.018.016,0,0,.08.072,0,0,.018.016,0,0,.018.017,0,0,.081.072,0,0,.018.016,0,0,.017.016,0,0,.06.053h0l.019.016,0,0,.018.016,0,0,.082.071,0,0,.018.016,0,0,.019.016,0,0,.063.054h0l.019.016,0,0,.017.015.007.006.017.014,0,0,.06.051,0,0,.018.015.005,0,.018.015,0,0,.083.069,0,0,.019.016,0,0,.018.015,0,0,.061.05,0,0,.017.014.007.006.017.014.007.006.017.014.005,0,.06.049,0,0,.018.015.007,0,.017.014.007.005.018.014,0,0,.061.049,0,0,.017.014.007.006.017.014.006,0,.061.048,0,0,.017.014.007.006.017.013.008.006.017.013.007,0,.059.046.006,0,.017.013.007.006.017.013.007.006.018.014h0l.064.049.006,0,.018.013.007,0,.018.014.006,0,.064.048h0l.019.014.006,0,.019.014.005,0,.019.014,0,0,.064.047,0,0,.018.014.007.005.018.013.006,0,.019.014h0l.066.048,0,0,.019.014.007,0,.018.013.006,0,.065.047h0l.02.014,0,0,.019.013.006,0,.02.014h0l.066.047,0,0,.019.014.006,0,.019.013.005,0,.087.061.005,0,.019.013.007,0,.019.013.007,0,.066.046h0l.02.014.006,0,.02.013.006,0,.02.013,0,0,.069.047h0l.022.015,0,0,.021.014,0,0,.091.061,0,0,.02.013.007,0,.02.013,0,0,.07.046h0l.021.014.005,0,.02.013.006,0,.02.013,0,0,.067.043,0,0,.02.013.005,0,.02.013,0,0,.09.057.007,0,.019.012.006,0,.02.013,0,0,.091.057,0,0,.021.013,0,0,.022.013h0l.072.044h0l.022.013.005,0,.021.013,0,0,.094.057,0,0,.021.013.005,0,.022.013h0l.073.044h0l.022.013.005,0,.02.012.007,0,.021.012h0l.07.042,0,0,.021.012.006,0,.021.012.005,0,.093.054,0,0,.022.012,0,0,.022.012,0,0,.095.054.005,0,.021.012,0,0,.022.013h0l.076.042h0l.023.013,0,0,.022.012,0,0,.1.054,0,0,.022.012.005,0,.022.012h0l.1.054,0,0,.023.012,0,0,.1.052h0l.022.012,0,0,.022.012,0,0,.1.051,0,0,.022.012,0,0,.023.012h0l.1.051,0,0,.023.012,0,0,.1.052h0l.023.012.006,0,.022.011,0,0,.1.05h0l.024.012,0,0,.024.012h0l.1.05,0,0,.024.012,0,0,.1.048,0,0,.023.011,0,0,.023.011,0,0,.1.048h0l.024.011h0l.025.012h0l.1.048h0l.025.012h0l.131.06h0l.158.071h0l.159.07h0q.295.128.593.247h0q.163.065.327.128h0q.876.335,1.784.6l.13.037.076.022c.125.035.251.07.376.1l.008,0,.016,0,.1.026h0l.141.036a6.593,6.593,0,0,0,7.956-4.769,6.724,6.724,0,0,0-4.77-8.164l-.15-.04-.062-.016-.087-.026a9.994,9.994,0,0,1,2.814-19.582,9.84,9.84,0,0,1,4.84,1.246l.08.044.056.033.135.079a6.719,6.719,0,0,0,9.161-2.342,6.6,6.6,0,0,0-2.2-9.012l-.127-.076h0l-.112-.066-.016-.01-.007,0-.028-.017h0l-.06-.035h0l-.023-.014-.066-.038,0,0-.126-.072-.071-.039-.112-.064-.023-.013h0l-.028-.015-.006,0-.028-.015h0l-.027-.015,0,0-.028-.015,0,0L149,56.287l0,0-.027-.015-.006,0-.057-.031,0,0-.059-.032h0l-.061-.032h0l-.03-.016h0l-.061-.032h0l-.062-.032h0l-.156-.081h0a23.156,23.156,0,0,0-5.242-1.928h0l-.106-.025-.07-.016h0l-.069-.016h0L142.913,54h0L142.877,54h0l-.035-.007h0l-.035-.007h0l-.07-.015h0l-.069-.014h0l-.034-.007h0l-.033-.007h0l-.033-.007h0l-.067-.014h0l-.067-.013h0l-.069-.014h0l-.034-.007h0l-.069-.013h0l-.069-.013h0l-.07-.013h0l-.034-.006h0l-.033-.006h0l-.034-.006h0l-.067-.012h0l-.034-.006h0l-.033-.006h0l-.033-.006h0l-.033-.006h0l-.034-.006h0l-.067-.011h0l-.067-.011h0l-.033-.005h0l-.032,0h0l-.033-.005h-.005l-.066-.01h-.006l-.067-.01h0l-.034,0h0l-.033,0h0l-.034,0h0l-.033,0h0l-.033,0h-.006l-.067-.009h0l-.033,0h0l-.032,0h0l-.033,0h0l-.068-.009h0l-.067-.009h-.006l-.034,0h0l-.033,0h0l-.033,0h0l-.032,0h0l-.034,0h0l-.068-.008h-.005l-.033,0h0l-.032,0H140.5l-.033,0h0l-.032,0h0l-.033,0h-.006l-.067-.007h-.007l-.033,0h0l-.03,0h-.007l-.032,0H140.2l-.029,0h0l-.033,0h-.005l-.032,0h0l-.033,0h-.007l-.033,0h0l-.031,0h-.007l-.032,0h-.006l-.028,0h-.006l-.032,0h-.008l-.03,0h0l-.033,0H139.8l-.067-.005h-.007l-.033,0h0l-.03,0h-.007l-.032,0h-.006l-.031,0h0l-.033,0h-.007l-.033,0h0l-.033,0h-.007l-.033,0h0l-.032,0h0l-.033,0h-.007l-.03,0h0l-.033,0h-.007l-.066,0h-.007l-.033,0h0l-.029,0h-.007l-.032,0h-.006l-.029,0h-.006l-.032,0h-.007l-.032,0h0l-.033,0h-.007l-.033,0h-1.058Z" transform="translate(-14.646 -6.834)" fill="#d2c9eb"/>
        <g id="Group_34" data-name="Group 34" transform="translate(19.979 46.621)">
          <path id="Path_262" data-name="Path 262" d="M36.228,53.455h79.918a13.32,13.32,0,0,1,13.32,13.32v6.661a13.32,13.32,0,0,1-13.32,13.32H36.228a13.32,13.32,0,0,1-13.32-13.32V66.775A13.32,13.32,0,0,1,36.228,53.455Z" transform="translate(-22.908 -53.455)" fill="#5329b4"/>
          <path id="Path_263" data-name="Path 263" d="M36.228,91.635h79.918a13.32,13.32,0,0,1,13.32,13.32v6.661a13.32,13.32,0,0,1-13.32,13.32H36.228a13.32,13.32,0,0,1-13.32-13.32v-6.661A13.32,13.32,0,0,1,36.228,91.635Z" transform="translate(-22.908 -58.337)" fill="#5329b4"/>
          <path id="Path_264" data-name="Path 264" d="M36.228,129.817h79.918a13.32,13.32,0,0,1,13.32,13.32V149.8a13.32,13.32,0,0,1-13.32,13.32H36.228a13.32,13.32,0,0,1-13.32-13.32v-6.661A13.32,13.32,0,0,1,36.228,129.817Z" transform="translate(-22.908 -63.219)" fill="#5329b4"/>
        </g>
        <g id="Group_35" data-name="Group 35" transform="translate(19.98 66.6)">
          <path id="Path_265" data-name="Path 265" d="M22.91,152.726H129.469a13.32,13.32,0,0,1-13.32,13.32H36.229a13.32,13.32,0,0,1-13.32-13.32Z" transform="translate(-22.91 -86.126)" fill="#5329b4"/>
          <path id="Path_266" data-name="Path 266" d="M22.91,76.363H129.469a13.32,13.32,0,0,1-13.32,13.32H36.229a13.32,13.32,0,0,1-13.32-13.32Z" transform="translate(-22.91 -76.363)" fill="#5329b4"/>
          <path id="Path_267" data-name="Path 267" d="M22.91,114.545H129.469a13.32,13.32,0,0,1-13.32,13.32H36.229a13.32,13.32,0,0,1-13.32-13.32Z" transform="translate(-22.91 -81.245)" fill="#5329b4"/>
        </g>
        <g id="Group_36" data-name="Group 36" transform="translate(33.301 59.939)">
          <circle id="Ellipse_9" data-name="Ellipse 9" cx="3.33" cy="3.33" r="3.33" transform="translate(0 0.001)" fill="#f2f2f2"/>
          <path id="Path_268" data-name="Path 268" d="M102.6,68.726h19.979a3.33,3.33,0,0,1,3.33,3.33h0a3.33,3.33,0,0,1-3.33,3.33H102.6a3.33,3.33,0,0,1-3.33-3.33h0A3.33,3.33,0,0,1,102.6,68.726Z" transform="translate(-45.994 -68.726)" fill="#f2f2f2"/>
          <circle id="Ellipse_10" data-name="Ellipse 10" cx="3.33" cy="3.33" r="3.33" transform="translate(0 33.302)" fill="#f2f2f2"/>
          <path id="Path_269" data-name="Path 269" d="M102.6,106.908h19.979a3.33,3.33,0,0,1,3.33,3.33h0a3.33,3.33,0,0,1-3.33,3.33H102.6a3.33,3.33,0,0,1-3.33-3.33h0A3.33,3.33,0,0,1,102.6,106.908Z" transform="translate(-45.994 -73.607)" fill="#f2f2f2"/>
          <circle id="Ellipse_11" data-name="Ellipse 11" cx="3.33" cy="3.33" r="3.33" transform="translate(0 66.6)" fill="#f2f2f2"/>
          <path id="Path_270" data-name="Path 270" d="M102.6,145.091h19.979a3.33,3.33,0,0,1,3.33,3.33h0a3.33,3.33,0,0,1-3.33,3.33H102.6a3.33,3.33,0,0,1-3.33-3.33h0A3.33,3.33,0,0,1,102.6,145.091Z" transform="translate(-45.994 -78.489)" fill="#f2f2f2"/>
        </g>
        <g id="Group_37" data-name="Group 37" transform="translate(33.3 79.919)">
          <path id="Path_271" data-name="Path 271" d="M41.512,129.817h73.259a3.33,3.33,0,0,1,3.33,3.33h0a3.33,3.33,0,0,1-3.33,3.33H41.512a3.33,3.33,0,0,1-3.33-3.33h0A3.33,3.33,0,0,1,41.512,129.817Z" transform="translate(-38.182 -96.516)" fill="#420fab"/>
          <path id="Path_272" data-name="Path 272" d="M41.512,160.361h73.259a3.33,3.33,0,0,1,3.33,3.33h0a3.33,3.33,0,0,1-3.33,3.33H41.512a3.33,3.33,0,0,1-3.33-3.33h0A3.33,3.33,0,0,1,41.512,160.361Z" transform="translate(-38.182 -100.422)" fill="#420fab"/>
          <path id="Path_273" data-name="Path 273" d="M41.512,91.635h73.259a3.33,3.33,0,0,1,3.33,3.33h0a3.33,3.33,0,0,1-3.33,3.33H41.512a3.33,3.33,0,0,1-3.33-3.33h0A3.33,3.33,0,0,1,41.512,91.635Z" transform="translate(-38.182 -91.635)" fill="#420fab"/>
        </g>
        <path id="Path_274" data-name="Path 274" d="M41.512,53.455h73.259a3.33,3.33,0,0,1,3.33,3.33h0a3.33,3.33,0,0,1-3.33,3.33H41.512a3.33,3.33,0,0,1-3.33-3.33h0A3.33,3.33,0,0,1,41.512,53.455Z" transform="translate(-4.882 -6.834)" fill="#420fab"/>
        <g id="Group_38" data-name="Group 38" transform="translate(19.979 53.28)">
          <path id="Path_275" data-name="Path 275" d="M26.238,61.091h0a3.33,3.33,0,0,1,3.33,3.33V77.74a3.33,3.33,0,0,1-3.33,3.33h0a3.33,3.33,0,0,1-3.33-3.33V64.421A3.33,3.33,0,0,1,26.238,61.091Z" transform="translate(-22.908 -61.091)" fill="#7b5bc6"/>
          <path id="Path_276" data-name="Path 276" d="M26.238,99.273h0a3.33,3.33,0,0,1,3.33,3.33v13.32a3.33,3.33,0,0,1-3.33,3.33h0a3.33,3.33,0,0,1-3.33-3.33V102.6A3.33,3.33,0,0,1,26.238,99.273Z" transform="translate(-22.908 -65.972)" fill="#7b5bc6"/>
          <path id="Path_277" data-name="Path 277" d="M26.238,137.452h0a3.33,3.33,0,0,1,3.33,3.33V154.1a3.33,3.33,0,0,1-3.33,3.33h0a3.33,3.33,0,0,1-3.33-3.33v-13.32A3.33,3.33,0,0,1,26.238,137.452Z" transform="translate(-22.908 -70.854)" fill="#7b5bc6"/>
        </g>
      </g>
    </g>
  </g>
</svg>
