<svg xmlns="http://www.w3.org/2000/svg" xmlns:xlink="http://www.w3.org/1999/xlink" width="348" height="261" viewBox="0 0 348 261">
  <defs>
    <clipPath id="clip-path">
      <rect id="Rectangle_4" data-name="Rectangle 4" width="348" height="261" transform="translate(326 1028)" fill="#fff"/>
    </clipPath>
  </defs>
  <g id="Mask_Group_1" data-name="Mask Group 1" transform="translate(-326 -1028)" clip-path="url(#clip-path)">
    <g id="layout" transform="translate(327.495 985.995)">
      <g id="Group_6" data-name="Group 6">
        <g id="Group_4" data-name="Group 4">
          <path id="Path_107" data-name="Path 107" d="M345.01,48.947V296.063A6.944,6.944,0,0,1,338.068,303H6.942A6.944,6.944,0,0,1,0,296.063V48.947A6.944,6.944,0,0,1,6.942,42H338.068A6.944,6.944,0,0,1,345.01,48.947Z" fill="#e8e6ed"/>
          <path id="Path_108" data-name="Path 108" d="M345.01,48.947V296.063A6.944,6.944,0,0,1,338.068,303H254.919c76.8-66.482,75.1-221.063,73.285-261h9.864a6.943,6.943,0,0,1,6.942,6.941Z" fill="#d1d0d8"/>
          <path id="Path_109" data-name="Path 109" d="M345.01,48.947V85.76H0V48.947A6.944,6.944,0,0,1,6.942,42H338.068A6.944,6.944,0,0,1,345.01,48.947Z" fill="#d1d0d8"/>
          <path id="Path_110" data-name="Path 110" d="M345.01,48.947V85.76H328.468c.569-19.062.16-34.494-.263-43.754h9.864A6.943,6.943,0,0,1,345.01,48.947Z" fill="#aaaab2"/>
          <g id="Group_3" data-name="Group 3">
            <path id="Path_111" data-name="Path 111" d="M27.8,69.09h-.079a5.206,5.206,0,1,1,0-10.412H27.8a5.206,5.206,0,1,1,0,10.412Z" fill="#717177"/>
            <path id="Path_112" data-name="Path 112" d="M43.517,69.09h-.078a5.206,5.206,0,0,1,0-10.412h.078a5.206,5.206,0,1,1,0,10.412Z" fill="#717177"/>
            <path id="Path_113" data-name="Path 113" d="M59.236,69.09h-.078a5.206,5.206,0,0,1,0-10.412h.078a5.206,5.206,0,1,1,0,10.412Z" fill="#717177"/>
            <path id="Path_114" data-name="Path 114" d="M317.289,69.09H307.6a5.206,5.206,0,1,1,0-10.412h9.688a5.206,5.206,0,1,1,0,10.412Z" fill="#717177"/>
          </g>
        </g>
        <path id="Path_115" data-name="Path 115" d="M134.831,121.17v88.988a6.942,6.942,0,0,1-6.942,6.942H38.9a6.942,6.942,0,0,1-6.942-6.942V121.17a6.942,6.942,0,0,1,6.942-6.942H127.89a6.942,6.942,0,0,1,6.942,6.942Z" fill="#26e4ff"/>
        <path id="Path_116" data-name="Path 116" d="M134.831,121.17v88.988a6.942,6.942,0,0,1-6.942,6.942H67.162c46.615-28.17,46.545-81.455,44.4-102.871H127.89a6.941,6.941,0,0,1,6.942,6.941Z" fill="#22d0ff"/>
        <path id="Path_117" data-name="Path 117" d="M134.831,240.035v28.69a6.942,6.942,0,0,1-6.942,6.942H38.9a6.942,6.942,0,0,1-6.942-6.942v-28.69a6.942,6.942,0,0,1,6.942-6.942H127.89A6.942,6.942,0,0,1,134.831,240.035Z" fill="#ffb800"/>
        <path id="Path_118" data-name="Path 118" d="M134.831,240.035v28.69a6.942,6.942,0,0,1-6.942,6.942H95.478c13.773-12.565,21.6-27.788,25.9-42.574h6.511A6.942,6.942,0,0,1,134.831,240.035Z" fill="#ff9700"/>
        <path id="Path_119" data-name="Path 119" d="M306.039,121.17v22.852a6.942,6.942,0,0,1-6.942,6.942H232.628a6.942,6.942,0,0,1-6.942-6.942V121.17a6.942,6.942,0,0,1,6.942-6.942H299.1a6.943,6.943,0,0,1,6.942,6.942Z" fill="#ab8eff"/>
        <path id="Path_120" data-name="Path 120" d="M306.039,121.17v22.852a6.942,6.942,0,0,1-6.942,6.942h-27.5a88.841,88.841,0,0,0,25.1-36.736h2.4A6.943,6.943,0,0,1,306.039,121.17Z" fill="#8f67ff"/>
        <path id="Path_121" data-name="Path 121" d="M306.039,174.109v94.618a6.942,6.942,0,0,1-6.942,6.942H232.628a6.942,6.942,0,0,1-6.942-6.942V174.109a6.942,6.942,0,0,1,6.942-6.942H299.1a6.942,6.942,0,0,1,6.942,6.942Z" fill="#2fd92d"/>
        <path id="Path_122" data-name="Path 122" d="M306.039,174.109v94.618a6.942,6.942,0,0,1-6.942,6.942H249.733c35.452-29.773,37.125-82.546,35.508-108.5H299.1A6.941,6.941,0,0,1,306.039,174.109Z" fill="#1fbf33"/>
        <g id="Group_5" data-name="Group 5">
          <path id="Path_123" data-name="Path 123" d="M209.346,121.17V268.726a6.942,6.942,0,0,1-6.942,6.942H158.566a6.942,6.942,0,0,1-6.942-6.942V121.17a6.942,6.942,0,0,1,6.942-6.942H202.4A6.942,6.942,0,0,1,209.346,121.17Z" fill="#ff5677"/>
          <path id="Path_124" data-name="Path 124" d="M209.346,121.17V268.726a6.942,6.942,0,0,1-6.942,6.942H164.758c34.167-46.983,34.64-133.915,33.855-161.44h3.79a6.942,6.942,0,0,1,6.942,6.942Z" fill="#ff2953"/>
        </g>
      </g>
    </g>
  </g>
</svg>
