<!DOCTYPE svg PUBLIC "-//W3C//DTD SVG 20010904//EN" "http://www.w3.org/TR/2001/REC-SVG-20010904/DTD/svg10.dtd">
<svg version="1.0" xmlns="http://www.w3.org/2000/svg" width="647px" height="282px" viewBox="0 0 6470 2820" preserveAspectRatio="xMidYMid meet">
<g id="layer101" fill="#7103ab" stroke="none">
<path d="M543 1913 c-23 -27 -44 -51 -47 -54 -3 -3 57 -68 134 -145 77 -76 140 -146 140 -155 0 -15 -32 -49 -162 -173 -32 -30 -58 -58 -58 -61 0 -4 25 -33 56 -65 48 -51 59 -57 74 -48 14 9 22 9 34 -1 17 -15 29 -6 191 150 39 37 89 85 111 106 50 46 68 77 60 108 -3 12 -89 104 -192 204 l-186 181 -57 0 c-55 0 -58 -1 -98 -47z"/>
<path d="M302 1512 c-134 -130 -173 -173 -173 -192 1 -19 45 -68 193 -212 l192 -186 53 0 c49 1 55 3 85 40 18 22 37 47 42 55 6 11 -26 50 -129 153 -112 113 -136 142 -130 159 3 12 34 47 68 78 141 131 148 139 140 161 -5 11 -29 39 -55 62 -38 33 -51 39 -65 31 -13 -7 -22 -6 -33 4 -13 12 -39 -9 -188 -153z"/>
</g>
<g id="layer102" fill="#646463" stroke="none">
<path d="M543 1913 c-23 -27 -44 -51 -47 -54 -3 -3 57 -68 134 -145 77 -76 140 -146 140 -155 0 -15 -32 -49 -162 -173 -32 -30 -58 -58 -58 -61 0 -4 25 -33 56 -65 48 -51 59 -57 74 -48 14 9 22 9 34 -1 18 -15 29 -6 207 167 47 46 96 90 108 98 29 21 54 72 47 99 -3 12 -90 104 -192 204 l-187 181 -56 0 c-55 0 -58 -1 -98 -47z"/>
<path d="M5583 1733 c-24 -2 -43 -9 -43 -15 0 -7 14 -50 31 -97 29 -81 39 -110 74 -198 7 -21 40 -109 71 -195 l58 -158 45 -2 c69 -3 192 0 197 4 2 2 -33 103 -77 224 -44 120 -97 264 -116 319 -20 55 -40 106 -46 113 -9 12 -92 14 -194 5z"/>
<path d="M302 1512 c-134 -130 -173 -173 -173 -192 1 -34 374 -400 409 -400 12 0 22 3 22 7 0 4 -83 88 -185 187 -150 146 -185 186 -185 208 0 21 24 50 113 136 61 61 132 128 157 150 40 36 43 43 30 56 -13 13 -34 -4 -188 -152z"/>
<path d="M1580 1643 c-45 -5 -120 -75 -120 -112 0 -25 0 -25 -35 9 l-35 34 -23 -22 c-28 -26 -31 -27 -51 -6 -14 14 -25 6 -116 -87 l-101 -103 100 -100 c97 -97 101 -99 120 -82 19 17 20 17 40 -3 27 -27 32 -26 61 4 29 30 40 32 40 4 0 -11 20 -40 43 -65 35 -35 51 -45 78 -45 19 -1 109 -3 201 -6 l166 -4 46 43 c42 40 46 48 48 98 l3 55 -115 0 -115 0 -3 -25 c-6 -37 -20 -50 -57 -50 -57 0 -65 20 -65 166 0 71 3 139 6 152 10 36 48 39 94 7 39 -27 52 -54 28 -56 -53 -5 -74 -7 -80 -8 -5 0 -8 -23 -8 -50 l0 -48 61 -7 c34 -3 106 -6 160 -6 l99 0 0 159 0 159 -217 -1 c-120 0 -234 -2 -253 -4z m-120 -288 c0 -63 -3 -115 -7 -115 -3 0 -32 26 -64 58 l-58 57 57 58 c31 31 60 57 64 57 4 0 8 -52 8 -115z"/>
<path d="M2163 1643 l-43 -4 0 -284 0 -283 83 -7 c45 -4 96 -5 112 -3 l30 3 3 228 2 228 122 -3 121 -3 18 -55 c9 -30 39 -130 65 -222 l47 -166 91 -7 c50 -4 124 -3 165 2 l74 8 60 205 c32 113 63 209 67 214 5 5 9 -87 9 -204 1 -118 2 -215 4 -216 7 -7 197 -16 218 -11 17 4 36 27 61 74 65 120 67 121 68 22 l0 -86 58 -5 c31 -3 81 -3 110 -1 l52 6 2 231 3 231 2 -191 3 -190 46 -45 45 -44 190 0 190 0 45 47 c44 47 45 49 42 105 -4 69 -3 69 -144 58 l-91 -7 -1 -30 c-1 -52 -36 -73 -74 -44 -16 12 -18 32 -18 163 0 157 4 173 46 173 43 0 54 -10 54 -51 l0 -38 106 -3 106 -3 20 -65 c18 -62 35 -116 73 -242 l17 -56 92 -7 c50 -4 122 -5 161 -3 l70 3 65 220 65 220 3 -217 2 -216 95 -7 c125 -10 136 -6 159 52 10 26 27 67 38 90 10 24 23 54 28 68 14 36 25 31 45 -22 10 -27 31 -78 47 -115 l30 -66 92 -7 c146 -11 131 -46 134 293 l2 292 -48 0 c-27 0 -76 -3 -110 -6 l-61 -7 -3 -36 -3 -36 -14 27 c-13 27 -17 27 -93 27 l-80 -1 -16 -36 -17 -37 -3 53 -3 53 -210 -4 c-231 -4 -222 -1 -233 -68 l-6 -39 -65 0 c-62 0 -65 1 -71 28 -3 15 -9 38 -13 52 l-8 25 -320 0 -320 0 -46 -49 -47 -49 0 52 0 51 -54 0 c-29 0 -80 -3 -113 -6 l-60 -7 -27 -51 c-14 -28 -42 -78 -61 -111 l-35 -60 0 117 0 117 -147 0 c-187 0 -293 -8 -293 -23 0 -6 -5 -28 -11 -49 l-10 -38 -62 3 -62 3 -14 52 -14 52 -296 -1 c-163 -1 -315 -3 -338 -5z m750 -230 c3 -5 -2 -30 -10 -58 l-15 -50 -14 45 c-8 25 -14 51 -14 58 0 13 46 17 53 5z m1699 0 c2 -5 -4 -30 -13 -58 l-17 -50 -15 50 c-17 58 -15 65 18 65 13 0 25 -3 27 -7z"/>
<path d="M6125 1550 c-22 -25 -34 -25 -51 -2 -12 16 -15 14 -48 -18 l-36 -34 65 -66 c36 -36 65 -69 65 -73 0 -4 -27 -34 -60 -67 -33 -33 -60 -63 -60 -68 0 -4 13 -21 30 -37 28 -27 31 -27 48 -12 18 16 20 16 37 -3 10 -11 23 -20 29 -20 6 0 58 46 114 103 l103 103 -106 107 c-58 59 -107 107 -109 107 -1 0 -11 -9 -21 -20z"/>
</g>
<g id="layer103" fill="#6d5c74" stroke="none">
<path d="M609 1953 c-14 -2 -45 -24 -69 -48 l-44 -45 34 -37 c19 -20 81 -82 137 -138 56 -55 104 -110 108 -121 4 -18 -15 -40 -105 -124 -60 -57 -110 -109 -110 -116 0 -7 23 -36 52 -64 37 -36 57 -49 70 -44 11 3 26 0 34 -6 15 -14 31 -1 205 168 47 46 96 90 108 98 29 21 54 72 47 99 -3 12 -90 104 -192 204 -199 193 -190 187 -275 174z"/>
<path d="M399 1582 c-42 -42 -108 -107 -147 -143 -71 -67 -89 -99 -78 -141 3 -13 86 -103 185 -200 160 -159 201 -194 201 -171 0 4 -83 88 -185 187 -150 146 -185 186 -185 208 0 21 24 50 113 137 61 60 131 126 155 146 23 21 42 41 42 46 0 24 -32 2 -101 -69z"/>
</g>
<g id="layer104" fill="#765187" stroke="none">
<path d="M614 1953 c-20 -3 -46 -19 -74 -48 l-44 -45 34 -37 c19 -20 81 -82 137 -138 56 -55 104 -110 108 -121 4 -18 -15 -40 -105 -124 -60 -57 -110 -109 -110 -116 0 -7 23 -36 52 -64 37 -36 57 -49 70 -44 11 3 26 0 34 -6 15 -14 31 -1 205 168 47 46 96 90 108 98 29 21 54 72 47 99 -3 12 -90 104 -192 204 -197 191 -187 184 -270 174z"/>
<path d="M337 1506 c-141 -135 -157 -154 -157 -184 0 -29 20 -52 187 -217 104 -101 190 -181 192 -179 3 2 -79 86 -182 187 -151 147 -187 187 -187 209 0 21 24 50 113 136 61 61 132 128 157 150 25 22 43 43 40 45 -3 3 -76 -63 -163 -147z"/>
</g>
<g id="layer105" fill="#5371fa" stroke="none">
<path d="M540 1905 l-44 -45 34 -37 c19 -20 81 -82 137 -138 56 -55 104 -110 108 -121 4 -18 -15 -40 -105 -124 -60 -57 -110 -109 -110 -116 0 -7 24 -36 52 -64 45 -44 56 -50 74 -41 15 6 25 6 32 -1 14 -14 67 31 240 198 90 88 122 125 122 143 0 18 -48 71 -187 207 l-188 184 -60 0 c-59 0 -62 -1 -105 -45z"/>
</g>
<g id="layer106" fill="#9da4b0" stroke="none">
<path d="M540 1905 l-44 -45 34 -37 c19 -20 81 -82 137 -138 56 -55 104 -110 108 -121 4 -18 -15 -40 -105 -124 -60 -57 -110 -109 -110 -116 0 -20 102 -115 117 -110 20 8 16 19 -22 56 -19 19 -35 41 -35 49 0 9 50 64 111 122 106 100 111 107 99 129 -7 13 -71 80 -141 148 -71 69 -129 129 -129 135 0 6 19 31 42 54 l42 43 -30 0 c-22 0 -41 -11 -74 -45z"/>
<path d="M5610 1719 c0 -5 5 -7 11 -4 6 4 9 1 8 -6 -1 -8 2 -25 8 -39 38 -93 93 -250 93 -263 0 -8 3 -17 8 -19 4 -1 22 -46 39 -98 18 -52 43 -123 55 -157 l23 -63 77 0 c47 0 78 4 78 10 0 6 -7 27 -16 48 -9 20 -17 44 -19 52 -2 8 -47 135 -100 283 l-98 267 -83 0 c-53 0 -84 -4 -84 -11z"/>
<path d="M1585 1599 l-45 -48 0 -196 0 -195 44 -45 45 -45 163 0 162 0 43 42 c40 39 43 46 43 95 l0 53 -70 0 c-69 0 -70 0 -70 -26 0 -15 -8 -33 -17 -40 -25 -19 -160 -19 -179 0 -19 19 -21 305 -2 324 7 7 40 12 78 12 64 0 67 -1 104 -39 l39 -40 -54 -3 -54 -3 -3 -52 -3 -53 121 0 121 0 -3 153 -3 152 -58 3 c-52 3 -59 1 -64 -17 l-5 -21 -26 21 c-23 18 -39 20 -144 18 l-118 -2 -45 -48z"/>
<path d="M2213 1643 c-10 -3 -13 -71 -13 -289 l0 -284 75 0 75 0 0 230 0 230 130 0 130 0 0 60 0 60 -192 -1 c-106 0 -199 -3 -205 -6z"/>
<path d="M2646 1643 c-2 -3 -1 -17 4 -31 5 -15 27 -92 50 -172 23 -80 57 -196 77 -257 l35 -113 118 0 118 0 11 33 c5 17 35 120 65 227 30 107 62 215 71 239 27 78 25 81 -59 81 l-74 0 -14 -57 -14 -58 -104 0 -104 0 -16 55 -16 55 -71 1 c-40 1 -74 0 -77 -3z m344 -240 c0 -10 -10 -58 -21 -108 -20 -83 -36 -121 -46 -111 -6 6 -63 207 -63 222 0 10 17 14 65 14 55 0 65 -3 65 -17z"/>
<path d="M3323 1643 l-53 -4 0 -285 0 -284 85 0 c47 0 85 4 85 9 0 11 78 150 97 172 7 8 13 23 13 32 0 9 5 17 11 17 5 0 7 5 4 10 -3 6 -2 10 3 10 5 0 15 14 22 30 7 17 16 30 21 30 5 0 9 -70 9 -155 l0 -155 70 0 70 0 0 290 0 291 -52 -2 c-84 -2 -94 -7 -114 -52 -10 -23 -28 -55 -40 -72 -11 -16 -45 -72 -73 -123 -29 -51 -57 -90 -62 -87 -5 4 -9 77 -9 165 0 135 -2 159 -16 164 -9 3 -16 5 -17 4 -1 -1 -26 -3 -54 -5z"/>
<path d="M3895 1604 l-45 -46 0 -203 0 -203 35 -26 c19 -15 35 -34 35 -42 0 -12 27 -14 157 -14 l157 0 43 42 c41 40 43 45 43 100 l0 58 -70 0 c-70 0 -70 0 -70 -27 -1 -50 -20 -63 -92 -63 -36 0 -69 5 -76 12 -17 17 -17 309 0 326 7 7 40 12 78 12 75 0 90 -10 90 -57 l0 -33 75 0 75 0 0 61 c0 59 -2 63 -44 105 l-43 44 -151 0 -151 0 -46 -46z"/>
<path d="M4334 1638 c-5 -7 -3 -8 6 -3 10 6 12 4 7 -9 -4 -9 -2 -24 3 -34 5 -9 19 -53 30 -97 12 -44 32 -114 45 -155 12 -41 35 -119 51 -172 l27 -98 121 0 121 0 44 158 c24 86 61 213 83 281 21 68 38 125 36 126 -2 2 -35 6 -74 10 l-72 7 -19 -58 -20 -59 -101 -3 c-89 -2 -101 -1 -106 15 -2 10 -10 37 -16 61 l-11 42 -74 0 c-45 0 -77 -5 -81 -12z m294 -219 c50 -1 61 -5 65 -20 3 -11 2 -19 -2 -19 -4 0 -8 -6 -9 -12 -2 -33 -39 -178 -47 -186 -16 -16 -35 29 -72 173 -11 43 -13 76 -5 71 5 -3 37 -6 70 -7z"/>
<path d="M4978 1643 c-17 -4 -18 -26 -18 -289 l0 -285 76 3 75 3 35 85 c20 47 49 113 65 148 16 34 29 69 29 76 0 8 7 16 15 20 8 3 14 2 13 -2 0 -4 7 -25 16 -47 62 -141 106 -249 106 -260 0 -19 24 -25 96 -25 l64 0 -2 287 -3 287 -35 3 c-19 1 -50 0 -67 -3 l-33 -5 -1 -142 c0 -141 0 -142 -16 -102 -9 22 -21 43 -27 47 -6 4 -8 8 -5 8 4 0 -12 37 -35 83 -36 73 -44 82 -71 85 -33 3 -22 22 -141 -253 -6 -13 -10 36 -12 133 l-3 152 -52 -1 c-28 -1 -60 -3 -69 -6z"/>
<path d="M1363 1538 c-40 -30 -183 -171 -183 -180 0 -10 118 -131 173 -178 l38 -33 35 39 35 39 -24 20 c-13 11 -42 41 -65 66 l-42 46 28 29 c16 16 45 47 64 69 l36 41 -33 31 -33 32 -29 -21z"/>
<path d="M6108 1530 c-16 -17 -28 -34 -28 -39 0 -5 30 -36 66 -70 l66 -62 -66 -66 c-36 -36 -66 -68 -66 -72 0 -4 16 -22 35 -39 l34 -32 83 84 c46 46 92 93 102 105 l20 22 -99 99 c-55 55 -104 100 -110 100 -5 0 -22 -14 -37 -30z"/>
</g>
<g id="layer107" fill="#949fce" stroke="none">
<path d="M578 1904 c-29 -35 -36 -49 -29 -63 6 -9 68 -74 140 -143 72 -69 131 -131 131 -138 0 -6 -47 -57 -105 -113 -73 -70 -105 -109 -105 -124 0 -13 18 -41 40 -64 22 -23 40 -37 40 -32 0 5 -16 24 -35 43 -19 19 -35 41 -35 49 0 9 50 64 111 122 106 100 111 107 99 129 -7 13 -71 80 -141 148 -71 69 -129 129 -129 135 0 6 19 31 42 54 23 24 36 43 28 42 -8 0 -32 -21 -52 -45z"/>
</g>
<g id="layer108" fill="#fefefe" stroke="none">
<path d="M5631 1696 c5 -19 28 -83 50 -143 37 -97 112 -306 156 -435 l17 -48 79 0 c71 0 79 2 74 18 -3 9 -19 53 -35 97 -101 272 -175 475 -185 505 l-12 35 -77 3 -77 3 10 -35z"/>
<path d="M5473 1642 l-62 -3 -3 -150 -3 -150 -43 108 c-57 146 -74 173 -110 173 -27 0 -32 -6 -72 -102 -24 -57 -51 -121 -61 -143 l-17 -40 -1 153 -1 152 -70 0 -70 0 0 -285 0 -285 74 0 c69 0 75 2 82 23 6 22 24 62 89 207 18 41 36 83 39 93 10 32 21 17 60 -81 21 -53 54 -130 72 -169 l33 -73 64 0 c57 0 65 2 70 21 9 33 9 547 0 551 -4 2 -36 2 -70 0z"/>
<path d="M1581 1595 l-41 -45 0 -195 0 -195 46 -45 47 -45 157 0 157 0 47 46 c44 44 47 50 44 93 l-3 46 -67 3 c-68 3 -68 3 -68 -24 0 -15 -8 -33 -17 -40 -23 -17 -164 -19 -181 -2 -17 17 -17 319 0 336 7 7 39 12 73 12 56 0 65 -3 103 -36 23 -19 42 -39 42 -44 0 -5 -24 -10 -52 -12 l-53 -3 -3 -52 -3 -53 120 0 121 0 0 150 0 150 -60 0 c-53 0 -60 -2 -60 -20 0 -11 -4 -20 -8 -20 -5 0 -17 9 -27 20 -16 18 -31 20 -145 20 l-127 0 -42 -45z"/>
<path d="M2200 1355 l0 -285 70 0 c60 0 70 3 70 18 1 9 0 113 0 230 l-1 212 136 0 135 0 0 55 0 55 -205 0 -205 0 0 -285z"/>
<path d="M2650 1613 c5 -16 27 -93 50 -173 23 -80 57 -196 77 -258 l35 -113 116 3 116 3 78 255 c43 140 81 267 84 283 l7 27 -76 0 -76 0 -11 -42 c-6 -24 -13 -49 -15 -55 -3 -9 -34 -13 -109 -13 l-105 0 -12 55 -12 55 -78 0 -78 0 9 -27z m349 -210 c0 -10 -13 -63 -27 -118 -37 -137 -50 -137 -86 -3 -16 57 -31 111 -33 121 -5 15 3 17 71 17 66 0 76 -2 75 -17z"/>
<path d="M3270 1355 l0 -285 80 0 80 0 26 51 c14 28 41 73 59 99 19 26 32 50 30 52 -3 2 14 34 38 70 l42 66 -3 -169 -3 -169 70 0 71 0 0 285 0 285 -74 0 -73 0 -19 -43 c-38 -85 -157 -287 -170 -287 -10 0 -15 17 -16 58 -1 31 -3 73 -4 92 -1 19 -3 68 -3 108 l-1 72 -65 0 -65 0 0 -285z"/>
<path d="M3892 1597 l-42 -43 0 -198 0 -199 47 -44 48 -43 144 0 145 0 43 42 c41 40 43 45 43 100 l0 58 -70 0 -70 0 0 -33 c0 -18 -5 -38 -12 -45 -16 -16 -140 -16 -156 0 -17 17 -17 319 0 336 7 7 40 12 78 12 77 0 100 -16 100 -68 l0 -32 70 0 70 0 0 58 c0 55 -2 60 -43 100 l-43 42 -155 0 -155 0 -42 -43z"/>
<path d="M4350 1623 c0 -21 40 -173 74 -283 13 -41 36 -119 52 -173 l27 -98 120 3 119 3 48 165 c26 91 64 216 84 277 20 62 36 115 36 118 0 3 -35 5 -77 3 l-76 -3 -17 -50 -17 -50 -103 0 c-115 0 -106 -5 -124 78 -6 26 -8 27 -76 27 -60 0 -70 -3 -70 -17z m346 -226 c-3 -12 -14 -53 -24 -92 -11 -38 -22 -82 -26 -97 -10 -42 -34 -34 -46 15 -6 23 -20 71 -31 106 -30 99 -31 97 56 93 71 -3 75 -5 71 -25z"/>
<path d="M1284 1459 l-104 -103 57 -59 c32 -32 80 -77 106 -99 l48 -41 34 33 34 33 -65 60 c-35 34 -64 66 -64 71 0 6 29 40 65 76 l64 65 -35 33 -35 34 -105 -103z"/>
<path d="M6109 1524 l-34 -36 69 -65 68 -65 -68 -70 -69 -69 35 -29 c19 -16 37 -30 40 -30 3 0 49 44 103 98 l97 98 -101 102 c-56 56 -103 102 -103 102 -1 0 -18 -16 -37 -36z"/>
</g>


</svg>