<!DOCTYPE svg PUBLIC "-//W3C//DTD SVG 20010904//EN" "http://www.w3.org/TR/2001/REC-SVG-20010904/DTD/svg10.dtd">
<svg version="1.0" xmlns="http://www.w3.org/2000/svg" width="650px" height="272px" viewBox="0 0 6500 2720" preserveAspectRatio="xMidYMid meet">
<g id="layer101" fill="#5f6364" stroke="none">
<path d="M568 1917 l-46 -54 139 -139 c76 -76 139 -146 139 -155 0 -9 -47 -61 -103 -116 -57 -55 -107 -105 -112 -112 -5 -9 12 -33 50 -71 49 -49 61 -57 76 -47 13 8 21 7 34 -3 14 -12 22 -8 63 31 26 25 90 85 142 134 52 50 109 105 127 123 59 60 55 65 -157 275 l-190 187 -58 0 c-58 0 -58 0 -104 -53z"/>
<path d="M5609 1741 l-47 -6 118 -323 c65 -178 120 -325 123 -328 3 -3 58 -6 124 -7 100 -2 118 0 117 13 -2 14 -122 352 -149 415 -6 17 -27 73 -45 125 -18 52 -38 101 -43 108 -10 13 -110 14 -198 3z"/>
<path d="M332 1524 c-142 -137 -172 -171 -172 -194 0 -24 33 -60 193 -214 l192 -186 53 0 c56 0 58 1 124 85 17 21 14 25 -117 161 -82 84 -135 147 -135 159 0 12 40 57 105 118 58 54 105 106 105 116 0 10 -25 42 -56 71 -51 48 -56 51 -73 36 -15 -14 -19 -14 -32 -1 -13 13 -35 -5 -187 -151z"/>
<path d="M1615 1653 c-30 -3 -50 -14 -82 -45 -23 -23 -43 -53 -45 -67 l-3 -25 -32 34 -32 34 -25 -23 c-25 -24 -26 -24 -47 -5 -20 18 -21 18 -122 -84 l-101 -103 104 -104 105 -105 17 22 17 23 25 -24 26 -25 28 27 c34 33 42 34 42 4 0 -14 17 -40 44 -66 l44 -43 199 -6 199 -5 46 46 c42 41 46 49 50 101 l3 57 -115 -3 c-114 -3 -115 -3 -118 -28 -6 -37 -20 -50 -57 -50 -58 0 -65 19 -65 179 0 153 6 171 52 171 23 -1 88 -51 88 -70 0 -10 -23 -14 -72 -10 -27 1 -28 0 -28 -53 l0 -54 61 -7 c34 -3 106 -6 160 -6 l99 0 0 159 0 159 -212 -1 c-117 0 -231 -2 -253 -4z m-130 -401 c-3 -3 -32 21 -65 53 l-60 59 62 64 63 63 3 -117 c1 -64 0 -119 -3 -122z"/>
<path d="M2193 1653 l-43 -4 0 -284 0 -283 93 -7 c146 -11 132 -36 135 228 l2 227 125 0 c94 0 125 -3 125 -12 0 -7 28 -108 62 -224 l62 -211 66 -7 c116 -11 247 -7 258 7 6 7 18 38 26 68 33 128 99 345 107 353 5 6 9 -82 9 -206 l0 -215 68 -6 c37 -4 91 -7 119 -7 l52 0 40 73 c69 125 70 125 71 25 l0 -86 95 -7 c52 -4 101 -5 110 -1 13 5 15 45 15 296 l0 290 -54 0 c-29 0 -80 -3 -113 -6 l-60 -7 -61 -111 -62 -111 0 117 0 117 -147 0 c-216 1 -293 -7 -293 -29 0 -9 -5 -31 -11 -49 -11 -30 -12 -31 -73 -31 l-63 0 -12 54 -12 55 -297 -1 c-163 -1 -316 -3 -339 -5z m749 -252 c-2 -14 -8 -36 -14 -50 l-10 -26 -13 35 c-22 57 -19 72 13 68 22 -2 26 -7 24 -27z"/>
<path d="M3918 1653 c-39 -3 -52 -10 -82 -44 l-36 -39 0 -203 0 -203 44 -43 44 -44 186 -5 186 -5 51 51 c50 50 50 50 47 109 -4 69 -3 69 -145 58 l-93 -7 0 -38 c0 -50 -40 -68 -74 -34 -13 13 -16 42 -16 163 0 161 3 171 56 171 33 0 44 -13 44 -55 0 -28 12 -31 120 -34 47 -1 87 -5 90 -7 2 -3 28 -85 56 -182 l51 -177 69 -8 c38 -4 112 -6 164 -5 l95 3 53 185 c85 292 81 290 81 38 l1 -216 95 -7 c125 -10 136 -6 159 52 54 135 79 193 84 188 3 -3 26 -56 52 -118 l46 -112 70 -8 c38 -4 89 -6 114 -5 l45 3 3 293 2 292 -48 0 c-27 0 -76 -3 -110 -6 l-61 -7 -4 -41 -3 -41 -14 32 -14 32 -79 -1 c-78 0 -80 -1 -90 -29 -16 -42 -27 -36 -27 16 l0 46 -211 -4 c-231 -4 -223 -1 -234 -69 l-7 -38 -64 0 c-61 0 -64 1 -70 28 -3 15 -9 38 -13 52 l-8 25 -279 1 c-153 0 -300 -1 -326 -3z m722 -230 c0 -5 -6 -30 -14 -58 l-13 -50 -11 40 c-18 61 -16 75 13 75 14 0 25 -3 25 -7z"/>
<path d="M6153 1558 c-22 -21 -23 -21 -43 -3 -20 18 -21 18 -55 -15 l-35 -34 67 -68 67 -68 -66 -67 -67 -68 33 -37 c33 -36 33 -37 52 -17 20 19 20 19 42 -1 11 -11 25 -20 29 -20 5 0 54 46 110 103 l102 102 -106 108 c-58 59 -107 107 -107 107 -1 0 -11 -10 -23 -22z"/>
</g>
<g id="layer102" fill="#69635d" stroke="none">
<path d="M637 1963 c-16 -3 -45 -23 -72 -51 l-44 -47 139 -140 c89 -90 140 -148 140 -161 0 -13 -36 -53 -102 -114 -57 -52 -105 -102 -106 -113 -3 -13 14 -38 49 -73 42 -43 55 -51 67 -42 10 9 18 9 34 -1 18 -11 25 -8 67 31 25 24 89 84 141 133 52 50 109 105 127 123 59 60 55 65 -157 275 -204 201 -192 193 -283 180z"/>
<path d="M355 1544 c-112 -107 -147 -146 -136 -153 10 -6 10 -10 1 -16 -7 -4 -16 -2 -20 4 -5 9 -10 8 -18 -2 -17 -20 -4 -77 17 -78 12 0 11 -2 -4 -9 -17 -7 -16 -9 10 -9 26 -1 56 -27 193 -164 89 -90 162 -167 162 -171 0 -5 -7 -3 -15 4 -9 7 -15 8 -15 2 0 -15 26 -22 76 -22 47 0 52 4 116 85 17 21 14 25 -117 161 -82 84 -135 147 -135 159 0 12 40 57 105 118 58 54 105 106 105 116 0 10 -25 41 -55 70 l-55 52 -35 -27 c-27 -20 -35 -23 -35 -11 0 8 5 17 12 19 7 3 8 7 3 10 -6 3 -77 -59 -160 -138z m55 12 c0 -3 -5 -8 -12 -12 -7 -4 -8 -3 -4 4 7 12 16 16 16 8z"/>
<path d="M2207 1653 c-32 -5 -31 -28 1 -27 20 0 20 -4 21 -245 1 -135 -2 -251 -7 -258 -4 -6 -21 -13 -37 -16 l-30 -4 33 -2 c17 0 32 -5 32 -11 0 -6 33 -10 80 -10 l80 0 2 225 3 226 110 0 c61 1 115 1 121 0 10 -1 25 -35 28 -63 1 -4 7 -13 14 -19 10 -11 12 -8 13 11 0 14 3 19 6 13 2 -7 11 -13 18 -13 7 0 16 6 18 13 3 6 6 0 6 -15 1 -23 -3 -28 -23 -28 -21 0 -24 -4 -22 -37 3 -45 35 -161 47 -169 4 -2 5 -12 2 -21 -4 -11 -3 -14 5 -9 8 5 12 -1 12 -16 0 -14 7 -33 15 -44 14 -18 14 -18 15 8 0 15 -4 30 -10 33 -16 10 -11 25 6 18 9 -3 20 0 24 8 8 11 10 11 14 -1 2 -8 9 -30 15 -47 5 -18 8 -42 6 -53 -2 -11 0 -18 5 -15 5 3 11 2 13 -2 5 -8 25 -8 164 -5 l72 2 25 83 c14 45 43 145 65 221 23 77 46 144 52 150 9 8 10 7 5 -2 -10 -16 1 -62 14 -62 5 0 12 9 15 20 3 11 12 20 20 20 7 0 16 8 18 18 3 9 5 -87 6 -215 l1 -232 23 -3 c12 -2 49 -2 82 0 l61 4 43 83 c24 46 53 94 65 107 11 13 17 18 11 10 -5 -8 -10 -39 -11 -68 -2 -51 0 -54 22 -54 21 0 24 5 24 40 0 29 4 40 15 40 12 0 15 -16 15 -80 l0 -80 70 0 70 0 0 290 0 290 -70 0 c-51 0 -70 -4 -70 -13 0 -8 -11 -23 -23 -35 -21 -20 -24 -20 -22 -5 0 10 4 24 9 31 5 8 -1 12 -19 12 -23 0 -25 -3 -23 -35 1 -22 7 -35 16 -35 9 0 12 -6 8 -16 -3 -9 -6 -20 -6 -25 0 -5 -3 -8 -7 -7 -5 1 -25 -1 -46 -6 -41 -8 -46 -29 -9 -34 12 -2 22 -8 22 -13 0 -6 -3 -8 -7 -6 -5 3 -15 -2 -23 -11 -13 -14 -12 -15 3 -9 9 3 17 2 17 -3 0 -6 -13 -10 -30 -10 -20 0 -30 -5 -30 -15 0 -8 7 -15 15 -15 8 0 15 -4 15 -10 0 -5 -5 -10 -11 -10 -5 0 -7 -5 -4 -11 5 -7 -3 -9 -21 -7 l-29 3 -3 144 -3 144 -82 -7 c-45 -4 -91 -6 -102 -5 -83 6 -159 2 -163 -9 -2 -7 -7 -10 -12 -7 -5 3 -7 -6 -5 -20 1 -15 -5 -36 -15 -47 -15 -19 -28 -22 -110 -22 l-92 -1 -17 55 -17 55 -294 1 c-162 1 -308 -1 -323 -3z m460 -35 c-3 -8 -6 -5 -6 6 -1 11 2 17 5 13 3 -3 4 -12 1 -19z m587 7 c3 -8 1 -15 -4 -15 -6 0 -10 7 -10 15 0 8 2 15 4 15 2 0 6 -7 10 -15z m43 -62 c-3 -10 -5 -2 -5 17 0 19 2 27 5 18 2 -10 2 -26 0 -35z m-46 7 c5 0 9 -7 9 -16 0 -13 -3 -14 -13 -5 -8 6 -16 8 -20 5 -3 -3 -4 2 -2 13 2 10 4 23 5 28 1 6 4 2 7 -7 2 -10 9 -18 14 -18z m316 -67 c-4 -3 -7 0 -7 7 0 7 3 10 7 7 3 -4 3 -10 0 -14z m-824 -115 c-2 -5 -12 -8 -21 -9 -14 0 -13 -2 3 -9 17 -7 15 -9 -12 -9 -40 -1 -46 25 -8 35 14 3 25 14 26 23 0 12 2 11 8 -4 5 -11 7 -23 4 -27z m245 20 c-21 -18 -23 -18 -29 -1 -5 14 -9 8 -18 -22 -6 -22 -11 -46 -11 -53 0 -21 -25 -8 -26 14 -1 10 -6 31 -12 45 -6 15 -8 29 -6 32 3 3 32 5 65 5 l59 -1 -22 -19z m39 0 c-3 -8 -6 -5 -6 6 -1 11 2 17 5 13 3 -3 4 -12 1 -19z m-10 -35 c3 -7 -3 -9 -16 -6 -12 3 -21 10 -21 15 0 13 32 6 37 -9z m628 -54 c-4 -5 -17 -8 -32 -7 -25 3 -25 3 -4 16 12 8 21 22 22 31 0 10 4 8 10 -7 5 -13 7 -28 4 -33z m-168 24 c-4 -3 -7 0 -7 7 0 7 3 10 7 7 3 -4 3 -10 0 -14z m-711 -31 c-2 -9 -11 -18 -22 -19 -10 -2 -13 0 -6 3 20 9 14 27 -8 21 -24 -6 -25 -3 -4 18 19 19 44 5 40 -23z m244 29 c0 -12 -57 -41 -64 -33 -15 15 -3 31 27 35 17 2 33 5 35 5 1 1 2 -2 2 -7z m-70 -58 c0 -19 -13 -9 -16 12 -1 8 2 13 7 9 5 -3 9 -12 9 -21z m677 -15 c-3 -8 -6 -5 -6 6 -1 11 2 17 5 13 3 -3 4 -12 1 -19z m-640 5 c-4 -3 -10 -3 -14 0 -3 4 0 7 7 7 7 0 10 -3 7 -7z m-184 -33 c4 -14 0 -20 -12 -20 -9 0 -22 -5 -28 -11 -7 -7 -12 -3 -15 16 -4 21 -1 28 16 35 26 9 32 6 39 -20z m184 3 c-4 -3 -7 0 -7 7 0 7 3 10 7 7 3 -4 3 -10 0 -14z m-12 -23 c9 0 12 -6 9 -15 -4 -8 -11 -15 -17 -15 -6 0 -8 3 -4 6 3 4 0 13 -8 21 -8 8 -15 20 -15 26 0 7 5 4 11 -5 5 -10 16 -18 24 -18z"/>
<path d="M3952 1653 c-6 -2 -9 -10 -6 -16 5 -8 2 -8 -7 1 -19 17 -49 15 -49 -4 0 -11 6 -15 20 -11 29 8 24 -9 -10 -33 -17 -12 -28 -26 -24 -31 10 -17 -5 -59 -21 -59 -13 0 -15 -22 -13 -152 3 -139 5 -153 21 -152 11 1 17 -5 17 -20 0 -12 18 -39 41 -61 l40 -40 153 2 152 2 36 33 c19 19 40 44 47 55 15 29 14 103 -1 108 -26 8 -136 14 -142 7 -4 -3 -25 -5 -46 -3 l-40 3 14 -34 c10 -22 20 -32 31 -30 12 2 15 -1 10 -10 -6 -9 -5 -10 3 -3 5 6 12 19 15 30 3 12 5 8 4 -10 -2 -30 -2 -30 -69 -32 -98 -3 -98 -3 -98 176 0 101 4 151 12 159 7 7 29 12 50 12 30 0 38 -4 38 -18 0 -10 3 -21 6 -25 10 -9 54 15 54 30 0 8 4 12 10 8 16 -10 0 -33 -28 -40 -21 -5 -23 -8 -11 -16 10 -8 8 -9 -8 -4 -14 4 -23 2 -23 -4 0 -6 16 -11 35 -11 35 0 47 13 23 24 -7 3 -4 4 7 3 13 -2 19 -9 17 -20 -2 -15 7 -17 73 -17 49 0 74 -4 70 -10 -4 -6 8 -56 26 -113 18 -56 34 -113 36 -127 2 -14 8 -26 14 -28 5 -2 9 -17 9 -33 0 -20 5 -29 16 -29 12 0 15 6 9 23 -18 56 -17 78 1 92 17 12 16 13 -9 8 -23 -5 -27 -2 -27 19 0 14 -9 35 -20 48 -24 27 -24 28 -6 46 31 30 52 13 60 -49 2 -12 10 -38 19 -57 8 -19 23 -63 32 -97 12 -42 23 -63 36 -66 10 -3 65 -3 122 0 l104 6 44 150 c23 82 44 157 45 166 1 9 11 42 22 75 20 60 45 88 56 61 3 -10 -1 -15 -14 -15 -15 0 -19 -7 -18 -40 0 -22 4 -37 9 -34 5 3 9 -2 9 -10 0 -19 16 -21 23 -3 3 6 6 -55 6 -136 1 -121 4 -149 16 -153 8 -4 15 -18 15 -34 0 -35 4 -36 86 -30 l67 5 55 128 55 128 24 -73 c14 -40 26 -75 29 -77 2 -2 11 2 19 9 17 14 6 35 -18 35 -15 1 -11 47 6 57 8 5 7 8 -5 8 -10 0 -18 5 -18 10 0 6 10 10 23 10 19 0 27 -10 42 -52 11 -29 18 -56 17 -60 -1 -5 3 -8 9 -8 5 0 8 -4 5 -8 -3 -5 4 -23 15 -41 11 -18 15 -30 9 -26 -6 3 -7 0 -4 -9 3 -9 10 -13 15 -10 5 3 9 -2 9 -10 0 -13 14 -16 75 -16 l75 0 0 291 0 291 -66 -4 c-47 -3 -70 -9 -79 -21 -7 -9 -17 -17 -24 -17 -6 0 -11 -4 -11 -10 0 -5 9 -10 20 -10 18 0 20 -7 20 -70 0 -54 -3 -70 -14 -70 -8 0 -16 -8 -18 -17 -3 -15 -5 -14 -10 5 -5 17 -2 22 14 22 18 0 18 1 3 16 -37 37 -48 63 -35 79 7 9 10 18 7 22 -4 3 -9 -2 -13 -11 -10 -25 -22 -19 -35 19 -12 32 -17 35 -51 35 -21 0 -38 -4 -38 -10 0 -5 -13 -7 -30 -3 -22 4 -30 2 -30 -8 0 -11 -2 -11 -10 1 -11 18 -14 15 -33 -40 l-15 -45 -1 67 -1 68 -210 -4 c-116 -1 -212 -5 -214 -7 -2 -2 -7 -15 -11 -29 -7 -23 -7 -23 9 -7 19 19 31 23 21 7 -3 -5 3 -10 14 -10 11 0 22 8 24 18 3 9 4 -2 2 -26 -2 -23 -7 -47 -10 -52 -3 -6 -50 -10 -105 -10 l-100 0 -6 28 c-3 15 -9 41 -13 57 l-7 30 -85 -2 c-46 -1 -97 -2 -112 -2 -16 -1 -26 -5 -22 -11 3 -5 2 -10 -3 -10 -6 0 -12 7 -16 15 -4 13 -32 15 -163 14 -87 0 -164 -3 -171 -6z m434 -97 c-2 -6 -5 -3 -5 6 -1 10 -12 20 -26 24 -29 7 -34 31 -7 36 18 4 47 -44 38 -66z m604 59 c0 -8 -7 -15 -16 -15 -14 0 -14 3 -4 15 7 8 14 15 16 15 2 0 4 -7 4 -15z m-53 -12 c-4 -3 -7 0 -7 7 0 7 3 10 7 7 3 -4 3 -10 0 -14z m288 -32 c7 -12 -22 -41 -40 -41 -7 0 -21 -7 -29 -16 -19 -18 -20 -15 -6 21 7 18 15 25 25 21 8 -3 23 -2 33 1 14 6 13 8 -8 14 -23 6 -23 7 -3 8 12 1 24 -3 28 -8z m-32 -81 c-3 -11 -9 -20 -13 -20 -4 0 -11 -19 -15 -42 -8 -43 -8 -43 -15 -13 -7 28 -8 29 -10 5 -2 -19 -3 -21 -7 -7 -7 29 6 67 23 67 8 0 17 7 20 15 9 22 23 18 17 -5z m-773 -33 c0 -18 7 -41 15 -51 22 -29 19 -36 -20 -36 -29 0 -33 3 -28 18 4 9 11 20 17 24 7 5 4 8 -6 8 -23 0 -23 16 -2 28 11 6 15 17 11 31 -3 11 -1 19 4 15 5 -3 9 -20 9 -37z m1013 -37 c3 -12 0 -20 -8 -20 -8 0 -11 8 -8 20 3 11 7 20 8 20 1 0 5 -9 8 -20z m-798 -31 c-5 -29 -4 -40 4 -35 7 5 9 1 5 -8 -5 -12 0 -16 20 -16 22 0 26 -4 25 -27 0 -28 -17 -78 -18 -57 -1 7 -12 15 -26 18 -25 6 -37 35 -55 129 -7 36 -7 37 22 37 29 0 30 -1 23 -41z m95 33 c0 -4 -18 -6 -40 -4 -22 2 -40 6 -40 8 0 2 18 4 40 4 22 0 40 -3 40 -8z m-10 -29 c-1 -5 -7 -19 -16 -33 -14 -23 -14 -23 -9 -2 5 17 2 22 -12 23 -16 0 -16 1 2 9 26 11 35 12 35 3z"/>
<path d="M1375 1535 c-15 -19 -32 -33 -38 -32 -6 1 -11 -3 -12 -10 0 -13 -69 -85 -102 -108 -27 -18 -54 -10 -46 13 4 13 0 11 -18 -5 -19 -19 -21 -25 -10 -35 8 -9 11 -9 9 -1 -10 37 56 -1 136 -79 41 -40 86 -83 101 -96 l27 -23 27 30 c15 17 34 31 42 31 7 0 -19 33 -58 73 l-72 72 60 64 c32 35 62 61 66 58 4 -4 6 -61 6 -127 -1 -94 2 -120 12 -120 10 0 11 7 5 32 -10 34 -3 78 14 91 8 6 7 10 -1 14 -7 2 -13 20 -13 39 0 25 4 33 13 28 10 -6 10 -4 0 7 -7 7 -13 19 -13 27 0 16 -80 91 -97 92 -7 0 -24 -16 -38 -35z"/>
</g>
<g id="layer103" fill="#715e5d" stroke="none">
<path d="M355 1543 c-88 -85 -145 -147 -137 -150 17 -7 15 -23 -3 -23 -8 0 -15 5 -15 12 0 8 -5 7 -15 -3 -20 -20 -10 -79 14 -80 12 0 11 -2 -4 -9 -17 -7 -16 -9 10 -9 26 -1 56 -27 193 -164 89 -90 162 -167 162 -171 0 -5 -7 -3 -15 4 -9 7 -15 8 -15 2 0 -15 26 -22 76 -22 47 0 52 4 116 85 17 21 14 25 -117 161 -82 84 -135 147 -135 159 0 12 40 57 105 118 58 54 105 106 105 116 0 10 -25 42 -55 70 l-56 53 -45 -38 c-38 -30 -44 -33 -33 -13 8 13 18 27 23 30 4 4 4 9 0 12 -5 2 -76 -60 -159 -140z m114 64 c-2 -2 -29 -25 -59 -52 l-55 -48 52 51 c28 29 55 52 59 52 4 0 5 -1 3 -3z"/>
</g>
<g id="layer104" fill="#666667" stroke="none">
<path d="M647 1963 c-29 -3 -47 -15 -82 -51 l-44 -47 139 -140 c90 -90 140 -148 140 -161 0 -14 -35 -53 -105 -115 -65 -59 -104 -102 -105 -114 0 -12 23 -43 53 -73 47 -47 55 -51 67 -37 12 14 15 14 31 -1 17 -15 27 -7 181 137 90 84 169 164 176 177 8 13 11 34 8 47 -9 35 -375 385 -401 383 -11 -1 -37 -3 -58 -5z"/>
<path d="M5647 1738 c-7 -3 -27 -5 -45 -4 -17 1 -32 -2 -32 -6 0 -5 11 -36 25 -70 14 -34 25 -67 25 -75 0 -7 7 -13 15 -13 12 0 13 4 6 19 -9 15 -6 18 17 17 17 -1 28 -7 30 -18 2 -10 -1 -18 -7 -18 -6 0 -11 -4 -11 -10 0 -5 7 -10 15 -10 8 0 15 5 15 12 0 15 11 4 14 -14 1 -7 4 -17 8 -23 3 -5 9 -26 13 -45 4 -19 11 -37 15 -40 7 -5 42 -102 37 -106 -1 -1 -13 3 -27 8 -18 7 -21 11 -11 17 10 6 9 10 -5 15 -16 6 -16 8 2 21 13 10 14 14 4 12 -8 -2 -12 -2 -7 0 18 11 5 22 -17 13 -23 -8 -25 -6 -42 46 -9 30 -14 57 -11 61 9 8 -12 33 -28 33 -8 0 -10 -9 -7 -25 2 -14 9 -25 14 -25 5 0 6 -4 3 -10 -3 -5 -1 -10 4 -10 6 0 11 -13 11 -30 0 -16 5 -30 12 -30 6 0 9 -3 5 -6 -6 -6 29 -111 44 -130 5 -6 6 -14 2 -17 -3 -4 -1 -7 6 -7 6 0 14 7 17 15 4 8 16 15 29 15 19 0 24 -7 29 -42 5 -29 3 -44 -6 -50 -9 -5 -6 -8 9 -8 12 0 27 -9 33 -20 6 -11 9 -20 7 -20 -3 0 1 -17 8 -37 l13 -38 86 -3 c47 -1 86 -1 86 1 0 4 -22 61 -39 102 -5 11 -23 58 -39 105 -43 120 -141 390 -154 422 -9 25 -14 27 -85 30 -41 2 -80 0 -86 -4z m25 -88 c-3 -3 -7 1 -9 8 -3 6 -13 12 -24 12 -10 0 -19 5 -19 10 0 6 7 10 15 10 8 0 15 6 15 13 1 6 7 -1 14 -18 7 -16 11 -32 8 -35z"/>
<path d="M454 1591 c-60 -54 -136 -126 -169 -160 -57 -59 -85 -75 -85 -49 0 8 -5 7 -15 -3 -20 -20 -10 -79 14 -80 12 0 11 -2 -4 -9 -17 -7 -15 -9 11 -9 26 -1 58 -28 210 -176 200 -195 213 -202 262 -143 69 82 77 58 -73 214 -82 84 -135 147 -135 159 0 12 40 57 105 118 58 54 105 106 105 116 0 15 -99 121 -113 121 -2 0 -53 -44 -113 -99z m-237 -248 c-4 -3 -7 0 -7 7 0 7 3 10 7 7 3 -4 3 -10 0 -14z"/>
<path d="M352 1542 c-78 -75 -142 -140 -142 -144 1 -22 33 0 105 73 44 44 104 101 133 126 28 25 52 51 52 58 0 8 6 16 13 18 8 4 7 6 -3 6 -8 0 -79 -62 -158 -137z"/>
<path d="M1633 1653 c-13 -2 -23 -8 -23 -13 0 -5 -8 -11 -17 -14 -10 -3 -6 -4 9 -2 15 2 25 -1 22 -5 -3 -5 -14 -9 -25 -9 -10 0 -18 -3 -17 -7 1 -5 -2 -21 -7 -36 -6 -21 -12 -27 -26 -24 -11 3 -19 1 -19 -4 0 -5 9 -9 20 -9 19 0 20 -7 20 -139 0 -124 -2 -140 -17 -144 -17 -4 -17 -5 0 -6 12 -1 17 -10 17 -33 1 -18 7 -44 15 -58 19 -33 18 -37 -2 -44 -10 -3 -1 -3 20 0 28 4 37 1 37 -10 0 -23 51 -28 203 -21 l142 7 43 41 c39 38 42 45 42 94 l0 53 -110 -1 c-95 -1 -110 -3 -110 -17 0 -13 2 -14 9 -4 6 10 10 9 14 -7 3 -12 16 -25 29 -30 29 -12 30 -12 -65 -18 -117 -7 -117 -6 -117 177 0 100 4 150 12 158 22 22 70 14 103 -18 29 -28 32 -29 58 -15 15 8 25 10 22 5 -4 -6 2 -10 12 -10 28 -1 -4 -17 -47 -24 -19 -3 -36 -10 -38 -16 -2 -5 -7 -8 -10 -6 -4 2 -13 -2 -20 -10 -11 -12 -10 -14 3 -14 8 0 15 -4 15 -9 0 -5 3 -16 6 -25 4 -11 0 -16 -14 -16 -29 0 -37 -17 -9 -20 12 -1 76 -3 142 -4 l120 -1 3 158 3 158 -68 -3 c-46 -2 -67 -7 -66 -15 2 -8 -6 -7 -25 3 -19 10 -61 14 -147 13 -66 -1 -130 -4 -142 -6z"/>
<path d="M2207 1653 c-32 -5 -31 -28 1 -27 20 0 20 -4 21 -245 1 -135 -2 -251 -7 -258 -4 -6 -21 -13 -37 -16 l-30 -4 33 -2 c17 0 32 -5 32 -11 0 -6 33 -10 80 -10 l80 0 2 225 3 226 110 0 c61 1 115 1 121 0 10 -1 25 -35 28 -63 1 -4 7 -13 14 -19 10 -11 12 -8 13 11 0 14 3 19 6 13 2 -7 11 -13 18 -13 7 0 16 6 18 13 3 6 6 0 6 -15 1 -23 -3 -28 -23 -28 -21 0 -24 -4 -22 -37 3 -45 35 -161 47 -169 4 -2 5 -12 2 -21 -4 -11 -3 -14 5 -9 8 5 12 -1 12 -16 0 -14 7 -33 15 -44 14 -18 14 -18 15 8 0 15 -4 30 -10 33 -16 10 -11 25 6 18 9 -3 20 0 24 8 8 11 10 11 14 -1 2 -8 9 -30 15 -47 5 -18 8 -42 6 -53 -2 -11 0 -18 5 -15 5 3 11 2 13 -2 5 -8 25 -8 164 -5 l72 2 25 83 c14 45 43 145 65 221 23 77 46 144 52 150 9 8 10 7 5 -2 -10 -16 1 -62 14 -62 5 0 12 9 15 20 3 11 12 20 20 20 7 0 16 8 18 18 3 9 5 -87 6 -215 l1 -232 23 -3 c12 -2 49 -2 82 0 l61 4 43 83 c24 46 53 94 65 107 11 13 17 18 11 10 -5 -8 -10 -39 -11 -68 -2 -51 0 -54 22 -54 21 0 24 5 24 40 0 29 4 40 15 40 12 0 15 -16 15 -80 l0 -80 70 0 70 0 0 290 0 290 -70 0 c-51 0 -70 -4 -70 -13 0 -8 -11 -23 -23 -35 -21 -20 -24 -20 -22 -5 0 10 4 24 9 31 5 8 -1 12 -19 12 -23 0 -25 -3 -23 -35 1 -22 7 -35 16 -35 9 0 12 -6 8 -16 -3 -9 -6 -20 -6 -25 0 -5 -3 -8 -7 -7 -5 1 -25 -1 -46 -6 -41 -8 -46 -29 -9 -34 12 -2 22 -8 22 -13 0 -6 -3 -8 -7 -6 -5 3 -15 -2 -23 -11 -13 -14 -12 -15 3 -9 9 3 17 2 17 -3 0 -6 -13 -10 -30 -10 -20 0 -30 -5 -30 -15 0 -8 7 -15 15 -15 8 0 15 -4 15 -10 0 -5 -5 -10 -11 -10 -5 0 -7 -5 -4 -11 5 -7 -3 -9 -21 -7 l-29 3 -3 144 -3 144 -82 -7 c-45 -4 -91 -6 -102 -5 -83 6 -159 2 -163 -9 -2 -7 -7 -10 -12 -7 -5 3 -7 -6 -5 -20 1 -15 -5 -36 -15 -47 -15 -19 -28 -22 -110 -22 l-92 -1 -17 55 -17 55 -294 1 c-162 1 -308 -1 -323 -3z m460 -35 c-3 -8 -6 -5 -6 6 -1 11 2 17 5 13 3 -3 4 -12 1 -19z m587 7 c3 -8 1 -15 -4 -15 -6 0 -10 7 -10 15 0 8 2 15 4 15 2 0 6 -7 10 -15z m43 -62 c-3 -10 -5 -2 -5 17 0 19 2 27 5 18 2 -10 2 -26 0 -35z m-46 7 c5 0 9 -7 9 -16 0 -13 -3 -14 -13 -5 -8 6 -16 8 -20 5 -3 -3 -4 2 -2 13 2 10 4 23 5 28 1 6 4 2 7 -7 2 -10 9 -18 14 -18z m316 -67 c-4 -3 -7 0 -7 7 0 7 3 10 7 7 3 -4 3 -10 0 -14z m-824 -115 c-2 -5 -12 -8 -21 -9 -14 0 -13 -2 3 -9 17 -7 15 -9 -12 -9 -40 -1 -46 25 -8 35 14 3 25 14 26 23 0 12 2 11 8 -4 5 -11 7 -23 4 -27z m245 20 c-21 -18 -23 -18 -29 -1 -5 14 -9 8 -18 -22 -6 -22 -11 -46 -11 -53 0 -8 -5 -12 -12 -10 -11 4 -39 94 -31 102 3 2 31 4 64 4 l59 -1 -22 -19z m39 0 c-3 -8 -6 -5 -6 6 -1 11 2 17 5 13 3 -3 4 -12 1 -19z m-10 -35 c3 -7 -3 -9 -16 -6 -12 3 -21 10 -21 15 0 13 32 6 37 -9z m628 -54 c-4 -5 -17 -8 -32 -7 -25 3 -25 3 -4 16 12 8 21 22 22 31 0 10 4 8 10 -7 5 -13 7 -28 4 -33z m-168 24 c-4 -3 -7 0 -7 7 0 7 3 10 7 7 3 -4 3 -10 0 -14z m-711 -31 c-2 -9 -11 -18 -22 -19 -10 -2 -13 0 -6 3 20 9 14 27 -8 21 -24 -6 -25 -3 -4 18 19 19 44 5 40 -23z m244 29 c0 -12 -57 -41 -64 -33 -15 15 -3 31 27 35 17 2 33 5 35 5 1 1 2 -2 2 -7z m-70 -58 c0 -19 -13 -9 -16 12 -1 8 2 13 7 9 5 -3 9 -12 9 -21z m677 -15 c-3 -8 -6 -5 -6 6 -1 11 2 17 5 13 3 -3 4 -12 1 -19z m-640 5 c-4 -3 -10 -3 -14 0 -3 4 0 7 7 7 7 0 10 -3 7 -7z m-184 -33 c4 -14 0 -20 -12 -20 -9 0 -22 -5 -28 -11 -7 -7 -12 -3 -15 16 -4 21 -1 28 16 35 26 9 32 6 39 -20z m184 3 c-4 -3 -7 0 -7 7 0 7 3 10 7 7 3 -4 3 -10 0 -14z m-12 -23 c9 0 12 -6 9 -15 -4 -8 -11 -15 -17 -15 -6 0 -8 3 -4 6 3 4 0 13 -8 21 -8 8 -15 20 -15 26 0 7 5 4 11 -5 5 -10 16 -18 24 -18z"/>
<path d="M2745 1240 c3 -5 13 -10 21 -10 8 0 14 5 14 10 0 6 -9 10 -21 10 -11 0 -17 -4 -14 -10z"/>
<path d="M3952 1653 c-6 -2 -9 -10 -6 -16 5 -8 2 -8 -7 1 -19 17 -49 15 -49 -4 0 -11 6 -15 20 -11 29 8 24 -9 -10 -33 -17 -12 -28 -26 -24 -31 10 -17 -5 -59 -21 -59 -13 0 -15 -22 -13 -152 3 -139 5 -153 21 -152 11 1 17 -5 17 -20 0 -12 18 -39 41 -61 l40 -40 153 2 152 2 36 33 c19 19 40 44 47 55 15 29 14 103 -1 108 -26 8 -136 14 -142 7 -4 -3 -25 -5 -46 -3 l-40 3 14 -34 c10 -22 20 -32 31 -30 12 2 15 -1 10 -10 -6 -9 -5 -10 3 -3 5 6 12 19 15 30 3 12 5 8 4 -10 -2 -30 -2 -30 -67 -32 -103 -3 -100 -7 -100 170 0 106 4 157 12 165 7 7 29 12 50 12 30 0 38 -4 38 -18 0 -10 3 -21 6 -25 10 -9 54 15 54 30 0 8 4 12 10 8 16 -10 0 -33 -28 -40 -21 -5 -23 -8 -11 -16 10 -8 8 -9 -8 -4 -14 4 -23 2 -23 -4 0 -6 16 -11 35 -11 35 0 47 13 23 24 -7 3 -4 4 7 3 13 -2 19 -9 17 -20 -2 -15 7 -17 73 -17 49 0 74 -4 70 -10 -4 -6 8 -56 26 -113 18 -56 34 -113 36 -127 2 -14 8 -26 14 -28 5 -2 9 -17 9 -33 0 -20 5 -29 16 -29 12 0 15 6 9 23 -18 56 -17 78 1 92 17 12 16 13 -9 8 -23 -5 -27 -2 -27 19 0 14 -9 35 -20 48 -24 27 -24 28 -6 46 31 30 52 13 60 -49 2 -12 10 -38 19 -57 8 -19 23 -63 32 -97 12 -42 23 -63 36 -66 10 -3 65 -3 122 0 l104 6 44 150 c23 82 44 157 45 166 1 9 11 42 22 75 20 60 45 88 56 61 3 -10 -1 -15 -14 -15 -15 0 -19 -7 -18 -40 0 -22 4 -37 9 -34 5 3 9 -2 9 -10 0 -19 16 -21 23 -3 3 6 6 -55 6 -136 1 -121 4 -149 16 -153 8 -4 15 -18 15 -34 0 -35 4 -36 86 -30 l67 5 55 128 55 128 24 -73 c14 -40 26 -75 29 -77 2 -2 11 2 19 9 17 14 6 35 -18 35 -15 1 -11 47 6 57 8 5 7 8 -5 8 -10 0 -18 5 -18 10 0 6 10 10 23 10 19 0 27 -10 42 -52 11 -29 18 -56 17 -60 -1 -5 3 -8 9 -8 5 0 8 -4 5 -8 -3 -5 4 -23 15 -41 11 -18 15 -30 9 -26 -6 3 -7 0 -4 -9 3 -9 10 -13 15 -10 5 3 9 -2 9 -10 0 -13 14 -16 75 -16 l75 0 0 291 0 291 -66 -4 c-47 -3 -70 -9 -79 -21 -7 -9 -17 -17 -24 -17 -6 0 -11 -4 -11 -10 0 -5 9 -10 20 -10 18 0 20 -7 20 -70 0 -54 -3 -70 -14 -70 -8 0 -16 -8 -18 -17 -3 -15 -5 -14 -10 5 -5 17 -2 22 14 22 18 0 18 1 3 16 -37 37 -48 63 -35 79 7 9 10 18 7 22 -4 3 -9 -2 -13 -11 -10 -25 -22 -19 -35 19 -12 32 -17 35 -51 35 -21 0 -38 -4 -38 -10 0 -5 -13 -7 -30 -3 -22 4 -30 2 -30 -8 0 -11 -2 -11 -10 1 -11 18 -14 15 -33 -40 l-15 -45 -1 67 -1 68 -210 -4 c-116 -1 -212 -5 -214 -7 -2 -2 -7 -15 -11 -29 -7 -23 -7 -23 9 -7 19 19 31 23 21 7 -3 -5 3 -10 14 -10 11 0 22 8 24 18 3 9 4 -2 2 -26 -2 -23 -7 -47 -10 -52 -3 -6 -50 -10 -105 -10 l-100 0 -6 28 c-3 15 -9 41 -13 57 l-7 30 -85 -2 c-46 -1 -97 -2 -112 -2 -16 -1 -26 -5 -22 -11 3 -5 2 -10 -3 -10 -6 0 -12 7 -16 15 -4 13 -32 15 -163 14 -87 0 -164 -3 -171 -6z m434 -97 c-2 -6 -5 -3 -5 6 -1 10 -12 20 -26 24 -29 7 -34 31 -7 36 18 4 47 -44 38 -66z m604 59 c0 -8 -7 -15 -16 -15 -14 0 -14 3 -4 15 7 8 14 15 16 15 2 0 4 -7 4 -15z m-53 -12 c-4 -3 -7 0 -7 7 0 7 3 10 7 7 3 -4 3 -10 0 -14z m288 -32 c7 -12 -22 -41 -40 -41 -7 0 -21 -7 -29 -16 -19 -18 -20 -15 -6 21 7 18 15 25 25 21 8 -3 23 -2 33 1 14 6 13 8 -8 14 -23 6 -23 7 -3 8 12 1 24 -3 28 -8z m-32 -81 c-3 -11 -9 -20 -13 -20 -4 0 -11 -19 -15 -42 -8 -43 -8 -43 -15 -13 -7 28 -8 29 -10 5 -2 -19 -3 -21 -7 -7 -7 29 6 67 23 67 8 0 17 7 20 15 9 22 23 18 17 -5z m-773 -33 c0 -18 7 -41 15 -51 22 -29 19 -36 -20 -36 -29 0 -33 3 -28 18 4 9 11 20 17 24 7 5 4 8 -6 8 -23 0 -23 16 -2 28 11 6 15 17 11 31 -3 11 -1 19 4 15 5 -3 9 -20 9 -37z m1013 -37 c3 -12 0 -20 -8 -20 -8 0 -11 8 -8 20 3 11 7 20 8 20 1 0 5 -9 8 -20z m-798 -31 c-5 -29 -4 -40 4 -35 7 5 9 1 5 -8 -5 -12 0 -16 20 -16 22 0 26 -4 25 -27 0 -28 -17 -78 -18 -57 -1 7 -12 15 -26 18 -25 6 -37 35 -55 129 -7 36 -7 37 22 37 29 0 30 -1 23 -41z m95 33 c0 -4 -18 -6 -40 -4 -22 2 -40 6 -40 8 0 2 18 4 40 4 22 0 40 -3 40 -8z m-10 -29 c-1 -5 -7 -19 -16 -33 -14 -23 -14 -23 -9 -2 5 17 2 22 -12 23 -16 0 -16 1 2 9 26 11 35 12 35 3z"/>
<path d="M4620 1318 c0 -7 5 -20 10 -28 8 -12 10 -11 10 7 0 12 -4 25 -10 28 -5 3 -10 0 -10 -7z"/>
<path d="M4650 1294 c0 -9 5 -14 12 -12 18 6 21 28 4 28 -9 0 -16 -7 -16 -16z"/>
<path d="M2151 1608 c1 -24 3 -34 6 -23 7 29 23 43 23 20 0 -10 3 -15 7 -12 8 8 -17 57 -29 57 -4 0 -7 -19 -7 -42z"/>
<path d="M3005 1641 c-3 -5 -1 -12 5 -16 5 -3 10 1 10 9 0 18 -6 21 -15 7z"/>
<path d="M5361 1620 c0 -29 1 -32 10 -17 7 11 7 23 0 35 -9 14 -10 11 -10 -18z"/>
<path d="M3624 1628 c-4 -7 -3 -8 4 -4 12 7 16 16 8 16 -3 0 -8 -5 -12 -12z"/>
<path d="M3870 1630 c0 -7 3 -10 7 -7 3 4 3 10 0 14 -4 3 -7 0 -7 -7z"/>
<path d="M1550 1620 c0 -5 5 -10 11 -10 5 0 7 5 4 10 -3 6 -8 10 -11 10 -2 0 -4 -4 -4 -10z"/>
<path d="M1512 1587 c-27 -29 -28 -58 -2 -82 17 -16 20 -16 20 -2 0 9 -4 19 -10 22 -16 10 -12 55 5 55 8 0 15 7 15 15 0 20 -3 19 -28 -8z"/>
<path d="M3833 1592 c-3 -12 -9 -20 -13 -17 -5 3 -11 1 -14 -4 -4 -5 -2 -12 3 -16 12 -7 47 43 37 52 -4 4 -9 -3 -13 -15z"/>
<path d="M3030 1585 c0 -9 6 -12 15 -9 8 4 15 7 15 9 0 2 -7 5 -15 9 -9 3 -15 0 -15 -9z"/>
<path d="M6148 1553 l-27 -27 -19 24 -19 23 -26 -35 c-15 -19 -27 -38 -27 -42 0 -4 17 -6 38 -5 42 3 62 -5 62 -27 0 -9 -10 -14 -27 -14 -25 0 -26 0 -8 -20 10 -11 25 -20 33 -20 9 0 13 -3 9 -6 -3 -4 1 -13 9 -21 8 -8 12 -18 9 -23 -3 -4 4 -10 15 -13 24 -6 27 -37 4 -37 -8 0 -13 -4 -9 -10 3 -5 -7 -16 -22 -24 -39 -20 -38 -47 3 -87 l34 -33 105 104 105 105 -108 108 -107 107 -27 -27z m70 -168 l22 -25 -33 1 c-17 1 -24 3 -14 6 20 5 22 14 5 31 -7 7 -10 12 -7 12 3 0 15 -11 27 -25z"/>
<path d="M1301 1539 c-23 -31 -24 -52 -1 -24 9 10 17 12 30 5 22 -12 36 15 19 36 -16 20 -22 18 -48 -17z"/>
<path d="M1376 1535 c-15 -19 -32 -34 -38 -32 -7 1 -12 -3 -13 -10 0 -13 -69 -85 -102 -108 -27 -18 -54 -10 -46 13 4 13 0 11 -18 -5 -19 -19 -21 -25 -10 -35 8 -9 11 -9 9 -1 -10 37 56 -1 136 -79 41 -40 86 -83 101 -96 l27 -23 27 30 c15 17 34 31 42 31 7 0 -19 33 -58 73 l-72 72 60 64 c32 35 62 61 66 58 4 -4 6 -61 6 -127 -1 -94 2 -120 12 -120 10 0 11 7 5 32 -10 34 -3 78 14 91 8 6 7 10 -1 14 -7 2 -13 20 -13 39 0 25 4 33 13 28 10 -6 10 -4 0 7 -7 7 -13 19 -13 27 0 16 -79 91 -96 92 -7 0 -24 -16 -38 -35z"/>
<path d="M2154 1340 c0 -124 2 -174 3 -112 2 61 2 163 0 225 -1 61 -3 11 -3 -113z"/>
<path d="M3800 1355 c1 -111 5 -185 11 -185 6 0 9 72 8 185 -1 105 -5 185 -10 185 -6 0 -9 -78 -9 -185z"/>
<path d="M3840 1530 c0 -5 7 -10 15 -10 8 0 15 5 15 10 0 6 -7 10 -15 10 -8 0 -15 -4 -15 -10z"/>
<path d="M1257 1481 c-4 -17 -1 -21 20 -21 13 0 23 5 21 11 -2 6 -7 10 -12 9 -5 -1 -12 4 -16 10 -5 8 -9 4 -13 -9z"/>
<path d="M3457 1453 c-4 -3 -7 -13 -7 -22 1 -13 3 -13 11 2 11 19 8 33 -4 20z"/>
<path d="M1760 1424 c0 -23 2 -24 15 -10 8 8 15 19 15 25 0 6 -7 11 -15 11 -9 0 -15 -10 -15 -26z"/>
<path d="M3237 1383 c-11 -11 -8 -233 3 -233 6 0 10 47 10 120 0 66 -1 120 -3 120 -2 0 -7 -3 -10 -7z"/>
<path d="M1760 1365 c0 -8 4 -15 10 -15 5 0 7 7 4 15 -4 8 -8 15 -10 15 -2 0 -4 -7 -4 -15z"/>
<path d="M4919 1270 c-4 -52 -5 -97 -3 -99 11 -12 15 15 12 100 l-3 94 -6 -95z"/>
<path d="M1165 1330 c3 -5 8 -10 11 -10 3 0 2 5 -1 10 -3 6 -8 10 -11 10 -3 0 -2 -4 1 -10z"/>
<path d="M6100 1300 c0 -7 3 -10 7 -7 3 4 3 10 0 14 -4 3 -7 0 -7 -7z"/>
<path d="M1233 1263 c38 -39 59 -45 22 -6 -14 15 -25 30 -25 34 0 3 -7 6 -15 6 -9 0 -3 -12 18 -34z"/>
<path d="M200 1267 c0 -2 15 -16 33 -33 l32 -29 -29 33 c-28 30 -36 37 -36 29z"/>
<path d="M6057 1263 c-4 -3 -7 -11 -7 -17 0 -6 5 -5 12 2 6 6 9 14 7 17 -3 3 -9 2 -12 -2z"/>
<path d="M5754 1226 c3 -16 12 -36 21 -46 9 -10 13 -25 9 -36 -5 -18 -5 -18 10 0 18 22 21 40 6 31 -5 -3 -10 2 -10 13 0 10 -9 30 -21 43 l-20 23 5 -28z"/>
<path d="M6045 1210 c3 -5 8 -10 11 -10 2 0 4 5 4 10 0 6 -5 10 -11 10 -5 0 -7 -4 -4 -10z"/>
<path d="M1505 1200 c-3 -5 -3 -10 2 -10 4 0 1 -5 -7 -10 -13 -8 -12 -10 3 -10 9 0 17 -8 18 -17 0 -11 3 -13 6 -5 2 6 11 12 19 12 19 0 18 6 -6 30 -23 23 -26 24 -35 10z"/>
<path d="M4473 1195 c-17 -19 -16 -25 2 -25 8 0 15 9 15 20 0 23 -1 24 -17 5z"/>
<path d="M3825 1170 c-3 -5 -1 -19 5 -30 14 -26 20 -26 13 0 -3 11 0 20 6 20 6 0 11 5 11 10 0 13 -27 13 -35 0z"/>
<path d="M5332 1130 c19 -45 38 -66 38 -40 0 6 8 10 18 11 13 0 14 2 2 6 -21 9 -36 26 -44 51 -4 12 -14 22 -21 22 -11 0 -9 -11 7 -50z"/>
<path d="M4913 1153 c4 -3 10 -3 14 0 3 4 0 7 -7 7 -7 0 -10 -3 -7 -7z"/>
<path d="M4914 1116 c0 -14 6 -22 14 -19 6 3 12 0 12 -6 0 -6 7 -11 16 -11 11 0 14 5 10 16 -3 9 -6 21 -6 27 0 7 -4 6 -10 -3 -8 -13 -10 -12 -10 3 0 9 -6 17 -14 17 -8 0 -13 -9 -12 -24z"/>
<path d="M3574 1119 c-3 -6 -1 -16 5 -22 8 -8 11 -5 11 11 0 24 -5 28 -16 11z"/>
<path d="M5800 1116 c0 -9 5 -16 10 -16 6 0 10 4 10 9 0 6 -4 13 -10 16 -5 3 -10 -1 -10 -9z"/>
<path d="M3865 1100 c3 -5 8 -10 11 -10 3 0 2 5 -1 10 -3 6 -8 10 -11 10 -3 0 -2 -4 1 -10z"/>
<path d="M5838 1103 c7 -3 16 -2 19 1 4 3 -2 6 -13 5 -11 0 -14 -3 -6 -6z"/>
<path d="M2188 1083 c7 -3 16 -2 19 1 4 3 -2 6 -13 5 -11 0 -14 -3 -6 -6z"/>
<path d="M530 950 c0 -8 25 -20 43 -20 8 0 7 4 -1 12 -14 14 -42 20 -42 8z"/>
</g>
<g id="layer105" fill="#8c5c5a" stroke="none">
<path d="M454 1591 c-157 -143 -232 -222 -240 -254 -6 -26 7 -41 187 -217 216 -211 227 -217 277 -158 69 82 77 58 -73 214 -82 84 -135 147 -135 159 0 12 40 57 105 118 58 54 105 106 105 116 0 15 -99 121 -113 121 -2 0 -53 -45 -113 -99z"/>
</g>
<g id="layer106" fill="#b25856" stroke="none">
<path d="M413 1549 c-82 -78 -158 -152 -170 -166 -47 -50 -38 -63 165 -266 209 -208 220 -214 270 -155 69 82 77 58 -73 214 -82 84 -135 147 -135 159 0 12 40 57 105 118 58 54 105 106 105 116 0 16 -100 121 -114 121 -3 0 -72 -64 -153 -141z"/>
</g>
<g id="layer107" fill="#d35656" stroke="none">
<path d="M391 1522 c-137 -133 -172 -172 -171 -193 0 -35 370 -399 405 -399 24 0 110 91 103 110 -1 5 -63 70 -135 144 -73 74 -133 140 -133 147 0 8 50 61 110 119 61 58 110 110 110 116 0 17 -36 59 -79 93 l-38 30 -172 -167z"/>
</g>
<g id="layer108" fill="#eb6162" stroke="none">
<path d="M392 1523 c-125 -121 -173 -174 -172 -191 0 -26 354 -381 396 -397 22 -8 29 -5 60 30 65 76 70 62 -80 214 -75 75 -136 144 -136 153 0 8 50 63 110 121 61 58 110 109 110 114 -1 11 -17 30 -71 81 l-45 42 -172 -167z"/>
</g>
<g id="layer109" fill="#fc5d5c" stroke="none">
<path d="M550 1673 c-158 -146 -330 -323 -330 -339 0 -13 59 -79 161 -180 89 -87 171 -169 181 -181 11 -12 34 -27 50 -34 32 -13 37 -9 99 74 l21 27 -136 138 c-75 76 -136 146 -136 156 0 9 13 29 29 44 220 210 208 184 124 263 -42 40 -50 44 -63 32z"/>
</g>
<g id="layer110" fill="#acad96" stroke="none">
<path d="M650 1963 c-24 -3 -48 -17 -77 -46 -24 -23 -43 -46 -43 -52 0 -6 59 -69 131 -140 72 -72 135 -138 141 -149 9 -16 -5 -33 -102 -125 -129 -123 -129 -123 -49 -191 37 -31 53 -40 62 -31 8 8 15 6 28 -5 17 -15 29 -6 181 137 90 84 169 164 176 177 8 13 11 34 8 47 -9 35 -375 385 -401 383 -11 0 -36 -3 -55 -5z"/>
<path d="M5650 1731 c0 -5 12 -40 26 -77 14 -38 44 -118 66 -179 22 -60 56 -153 75 -205 19 -52 41 -116 50 -142 l16 -48 84 0 c46 0 83 3 81 8 -2 4 -9 18 -16 32 -6 14 -34 88 -61 165 -27 77 -75 211 -107 298 l-58 157 -78 0 c-43 0 -78 -4 -78 -9z"/>
<path d="M1665 1651 c-11 -5 -37 -27 -58 -50 l-37 -41 0 -196 0 -196 45 -44 44 -44 163 0 162 0 43 42 c40 39 43 46 43 95 l0 53 -70 0 c-67 0 -70 -1 -70 -24 0 -44 -24 -56 -109 -56 -46 0 -82 5 -89 12 -8 8 -12 59 -12 164 0 179 0 180 93 176 50 -2 66 -8 99 -34 22 -17 36 -34 31 -39 -4 -4 -28 -9 -53 -11 l-45 -3 -3 -52 -3 -53 121 0 121 0 -3 153 -3 152 -58 3 c-52 3 -59 1 -64 -18 -5 -20 -6 -20 -25 -3 -16 15 -41 18 -132 20 -61 2 -120 -1 -131 -6z"/>
<path d="M2433 1652 l-203 -2 0 -285 0 -285 75 0 75 0 0 230 0 230 133 0 132 0 0 54 c0 30 -2 56 -5 58 -3 1 -96 2 -207 0z"/>
<path d="M2675 1650 c-3 -5 -1 -19 4 -32 5 -13 17 -50 26 -83 9 -33 21 -73 26 -90 6 -16 32 -104 58 -195 l49 -165 119 -3 120 -3 58 198 c32 109 70 236 85 283 l27 85 -46 7 c-25 3 -61 4 -78 1 -29 -5 -34 -11 -43 -47 -6 -22 -13 -47 -15 -54 -4 -9 -30 -12 -107 -10 l-102 3 -16 55 -16 55 -72 1 c-40 1 -74 -2 -77 -6z m355 -227 c0 -5 -13 -57 -28 -118 -34 -134 -50 -145 -74 -53 -9 35 -22 87 -30 115 -8 29 -13 55 -10 58 8 8 142 6 142 -2z"/>
<path d="M3313 1654 c-10 -4 -13 -72 -13 -290 l0 -284 84 0 c71 0 85 3 89 18 8 23 80 157 95 175 7 8 24 36 38 63 14 27 30 53 35 59 5 5 9 -55 9 -153 l0 -162 70 0 70 0 0 290 0 290 -64 0 c-62 0 -64 -1 -88 -37 -14 -21 -52 -85 -83 -143 -67 -121 -93 -160 -105 -160 -5 0 -11 75 -12 168 l-3 167 -55 2 c-30 1 -61 -1 -67 -3z"/>
<path d="M3924 1610 l-44 -44 0 -200 0 -200 42 -43 42 -43 150 0 150 0 43 42 c41 40 43 45 43 100 l0 58 -70 0 -70 0 0 -33 c0 -18 -5 -38 -12 -45 -16 -16 -140 -16 -156 0 -17 17 -16 307 1 329 9 12 27 15 81 13 38 -1 72 -6 77 -11 4 -4 9 -24 11 -43 l4 -35 72 -3 72 -3 0 58 c-1 54 -4 61 -41 102 l-40 43 -155 2 -156 1 -44 -45z"/>
<path d="M4378 1648 c-7 -4 -2 -35 16 -95 14 -48 32 -108 40 -133 7 -25 33 -111 56 -192 l44 -148 120 0 121 0 29 103 c16 56 37 131 47 167 10 36 34 116 54 179 19 63 33 116 31 118 -4 4 -102 6 -142 4 -7 -1 -15 -18 -19 -38 -13 -72 -15 -73 -125 -73 l-99 0 -10 38 c-5 20 -11 46 -13 57 -3 18 -11 20 -71 20 -38 0 -73 -3 -79 -7z m348 -236 c-11 -34 -36 -127 -47 -174 -13 -60 -34 -62 -49 -5 -7 23 -20 73 -31 112 -10 38 -19 73 -19 77 0 5 34 8 76 8 68 0 75 -2 70 -18z"/>
<path d="M5003 1653 c-10 -4 -13 -70 -13 -289 l0 -285 75 3 76 3 46 110 c25 61 58 135 72 165 14 30 24 60 23 65 -2 6 0 7 3 3 4 -4 22 -42 40 -85 17 -43 49 -120 71 -170 l39 -93 73 0 72 0 0 285 0 285 -22 1 c-13 0 -34 2 -48 4 -14 2 -35 1 -47 -2 -22 -5 -23 -10 -25 -147 -3 -159 4 -161 -72 19 -42 98 -44 100 -78 103 l-35 3 -48 -118 c-75 -182 -75 -182 -75 -10 0 81 -3 147 -7 148 -38 4 -111 5 -120 2z"/>
<path d="M1312 1467 l-102 -103 102 -101 103 -101 39 35 38 35 -67 68 -68 69 67 67 66 68 -32 33 c-17 18 -34 33 -38 33 -3 0 -51 -46 -108 -103z"/>
<path d="M6137 1537 l-37 -32 70 -70 70 -69 -67 -68 -68 -68 37 -37 c21 -20 39 -35 40 -32 2 2 48 51 103 107 l100 102 -100 100 c-55 55 -102 100 -105 100 -3 -1 -22 -15 -43 -33z"/>
</g>
<g id="layer111" fill="#c4bd88" stroke="none">
<path d="M682 1963 c-8 -3 -34 -24 -59 -48 l-46 -42 28 -36 c16 -20 78 -81 137 -137 59 -56 111 -112 114 -125 5 -20 -6 -35 -68 -92 -159 -148 -151 -138 -134 -172 9 -16 36 -46 61 -66 l44 -37 163 153 c90 84 169 164 176 177 8 13 11 34 8 47 -7 29 -374 385 -396 384 -8 0 -21 -3 -28 -6z"/>
</g>
<g id="layer112" fill="#d7d177" stroke="none">
<path d="M623 1911 l-42 -47 139 -139 c92 -92 140 -147 140 -161 0 -14 -33 -50 -100 -110 -56 -49 -103 -100 -107 -114 -5 -20 3 -32 52 -77 l58 -53 169 161 c92 89 171 172 174 184 3 13 -1 33 -10 47 -8 12 -94 98 -190 191 -157 150 -178 167 -208 166 -26 -1 -42 -11 -75 -48z"/>
</g>
<g id="layer113" fill="#e6dd6e" stroke="none">
<path d="M632 1917 c-23 -23 -42 -48 -42 -54 0 -6 60 -69 133 -140 74 -70 136 -138 139 -150 5 -18 -14 -40 -103 -123 -62 -58 -109 -109 -109 -120 0 -17 93 -110 110 -110 15 0 325 296 338 323 11 22 11 31 0 51 -7 13 -92 101 -189 195 -204 198 -207 199 -277 128z"/>
</g>
<g id="layer114" fill="#fef952" stroke="none">
<path d="M632 1917 c-23 -23 -42 -47 -42 -52 0 -6 61 -68 135 -140 75 -71 137 -140 140 -152 3 -18 -19 -44 -108 -127 -127 -120 -128 -121 -43 -191 l46 -37 77 68 c42 38 119 110 170 159 78 75 93 95 93 120 -1 38 6 31 -197 228 -198 193 -202 194 -271 124z"/>
</g>
<g id="layer115" fill="#f7ed65" stroke="none">
<path d="M630 1915 c-24 -25 -42 -45 -39 -45 3 0 25 20 49 45 24 25 42 45 39 45 -3 0 -25 -20 -49 -45z"/>
<path d="M755 1930 c3 -5 8 -10 11 -10 3 0 2 5 -1 10 -3 6 -8 10 -11 10 -3 0 -2 -4 1 -10z"/>
<path d="M660 1785 c35 -36 67 -65 69 -65 3 0 -24 29 -59 65 -35 36 -67 65 -69 65 -3 0 24 -29 59 -65z"/>
<path d="M1055 1640 c10 -11 20 -20 23 -20 3 0 -3 9 -13 20 -10 11 -20 20 -23 20 -3 0 3 -9 13 -20z"/>
<path d="M820 1636 c0 -2 8 -10 18 -17 15 -13 16 -12 3 4 -13 16 -21 21 -21 13z"/>
<path d="M829 1513 l-34 -38 38 34 c34 33 42 41 34 41 -2 0 -19 -17 -38 -37z"/>
<path d="M1004 1448 c-4 -7 -3 -8 4 -4 12 7 16 16 8 16 -3 0 -8 -5 -12 -12z"/>
<path d="M964 1408 l-19 -23 23 19 c21 18 27 26 19 26 -2 0 -12 -10 -23 -22z"/>
<path d="M686 1381 c-21 -22 -36 -45 -33 -53 4 -10 6 -10 6 2 1 8 18 31 38 52 20 21 35 38 32 38 -3 0 -22 -18 -43 -39z"/>
<path d="M660 1307 c0 -2 15 -16 33 -33 l32 -29 -29 33 c-28 30 -36 37 -36 29z"/>
<path d="M834 1288 c-4 -7 -3 -8 4 -4 7 4 12 9 12 12 0 8 -9 4 -16 -8z"/>
</g>
<g id="layer116" fill="#fefefe" stroke="none">
<path d="M5652 1727 c2 -8 55 -156 118 -330 l115 -317 78 0 c42 0 77 3 77 6 0 7 -26 79 -152 424 l-83 225 -78 3 c-63 2 -78 0 -75 -11z"/>
<path d="M1611 1605 l-41 -45 0 -197 0 -197 46 -43 47 -43 160 0 160 0 43 42 c41 40 44 46 44 95 l0 53 -70 0 c-67 0 -70 -1 -70 -24 0 -44 -24 -56 -109 -56 -46 0 -82 5 -89 12 -8 8 -12 59 -12 164 0 186 1 188 94 178 46 -5 70 -14 99 -36 20 -16 37 -34 37 -38 0 -5 -24 -10 -52 -12 l-53 -3 -3 -52 -3 -53 120 0 121 0 0 150 0 150 -60 0 c-53 0 -60 -2 -60 -20 0 -11 -4 -20 -8 -20 -5 0 -17 9 -27 20 -16 18 -31 20 -145 20 l-127 0 -42 -45z"/>
<path d="M2230 1365 l0 -285 70 0 70 0 2 228 3 227 133 3 132 3 0 54 0 55 -205 0 -205 0 0 -285z"/>
<path d="M2686 1603 c7 -27 20 -70 28 -98 8 -27 26 -88 39 -135 14 -47 39 -130 55 -185 l29 -100 119 -3 119 -2 44 152 c25 84 64 213 87 286 l42 132 -79 0 -78 0 -11 -42 c-6 -24 -13 -49 -15 -55 -3 -9 -34 -13 -108 -13 l-104 0 -11 39 c-7 21 -12 46 -12 55 0 13 -13 16 -79 16 l-78 0 13 -47z m343 -185 c0 -7 -13 -60 -28 -118 -34 -130 -50 -139 -74 -43 -25 94 -33 124 -41 151 -7 21 -6 22 68 22 54 0 76 -4 75 -12z"/>
<path d="M3300 1365 l0 -285 79 0 79 0 43 78 c24 42 48 85 54 94 5 9 27 46 48 83 22 37 40 65 43 63 2 -2 4 -75 5 -161 l1 -157 69 0 69 0 0 285 0 285 -68 0 -68 0 -46 -77 c-25 -43 -67 -117 -94 -165 -27 -49 -55 -88 -61 -88 -10 0 -13 37 -14 148 -1 81 -1 155 0 165 2 15 -7 17 -68 17 l-71 0 0 -285z"/>
<path d="M3922 1607 l-42 -43 0 -200 0 -200 43 -42 43 -42 149 0 149 0 43 42 c41 40 43 45 43 100 l0 58 -70 0 -70 0 0 -33 c0 -18 -5 -38 -12 -45 -14 -14 -136 -16 -157 -3 -12 8 -14 39 -12 167 1 94 7 164 13 171 12 15 145 10 161 -6 6 -6 10 -25 11 -43 l1 -33 73 -3 72 -3 0 58 c0 56 -2 61 -43 101 l-43 42 -155 0 -155 0 -42 -43z"/>
<path d="M4370 1644 c0 -4 14 -52 30 -108 17 -56 35 -117 40 -136 5 -19 20 -71 34 -115 13 -44 32 -108 41 -142 l18 -63 118 0 117 0 20 63 c11 34 30 98 42 142 13 44 40 134 60 200 21 66 41 130 45 143 6 21 5 22 -73 22 l-80 0 -7 -37 c-13 -72 -15 -73 -126 -73 -71 0 -101 4 -104 13 -2 6 -9 31 -15 55 l-11 42 -74 0 c-41 0 -75 -3 -75 -6z m356 -231 c-10 -32 -56 -208 -56 -215 0 -5 -7 -8 -15 -8 -8 0 -19 17 -25 43 -6 23 -20 72 -31 108 -10 36 -19 71 -19 78 0 7 26 11 76 11 67 0 75 -2 70 -17z"/>
<path d="M4990 1365 l0 -285 74 0 74 0 26 65 c32 80 64 153 79 180 6 11 18 40 28 65 l17 45 12 -30 c6 -16 39 -96 73 -177 l62 -148 73 0 72 0 0 285 0 285 -70 0 -70 0 0 -152 -1 -153 -43 105 c-78 190 -72 180 -104 180 -16 0 -34 -6 -41 -13 -6 -8 -33 -69 -60 -136 -27 -67 -52 -125 -55 -128 -3 -4 -6 62 -6 145 l0 152 -70 0 -70 0 0 -285z"/>
<path d="M1312 1467 l-103 -103 101 -97 c55 -53 104 -97 108 -97 15 1 74 62 66 69 -5 4 -36 35 -69 69 l-59 62 67 68 67 68 -33 32 c-18 18 -35 32 -38 32 -2 0 -51 -46 -107 -103z"/>
<path d="M6137 1537 l-37 -32 70 -70 70 -69 -67 -68 -67 -68 35 -34 35 -35 104 104 103 104 -99 100 c-54 56 -101 101 -104 101 -3 -1 -22 -15 -43 -33z"/>
</g>


</svg>