<svg xmlns="http://www.w3.org/2000/svg" width="71.138" height="121.087" viewBox="0 0 71.138 121.087">
  <g id="left-arrow" transform="translate(172.616 -370.917) rotate(180)">
    <g id="Group_5" data-name="Group 5" transform="translate(101.478 -492.004)">
      <g id="Group_4" data-name="Group 4" transform="translate(0 0)">
        <path id="Path_2" data-name="Path 2" d="M170.684-426.736,116.8-372.851a6.575,6.575,0,0,1-4.684,1.934,6.575,6.575,0,0,1-4.684-1.934l-3.968-3.967a6.633,6.633,0,0,1,0-9.368l45.249-45.249-45.3-45.3a6.58,6.58,0,0,1-1.934-4.683,6.585,6.585,0,0,1,1.934-4.686l3.968-3.966A6.577,6.577,0,0,1,112.065-492a6.575,6.575,0,0,1,4.684,1.934l53.936,53.934a6.585,6.585,0,0,1,1.931,4.7A6.583,6.583,0,0,1,170.684-426.736Z" transform="translate(-101.478 492.004)" fill="#f36209"/>
      </g>
    </g>
  </g>
</svg>
