<svg xmlns="http://www.w3.org/2000/svg" id="Capa_1" enable-background="new 0 0 512 512" height="512" viewBox="0 0 512 512" width="512"><g><g><path d="m512 72.638v366.724c0 5.687-4.615 10.302-10.302 10.302h-491.396c-5.687 0-10.302-4.615-10.302-10.302v-366.724c0-5.687 4.615-10.302 10.302-10.302h491.396c5.687 0 10.302 4.615 10.302 10.302z" fill="#404044"/><path d="m512 72.638v366.724c0 5.687-4.615 10.302-10.302 10.302h-123.395c113.979-98.66 111.445-328.061 108.756-387.327h14.639c5.687-.001 10.302 4.614 10.302 10.301z" fill="#0F1010"/><path d="m512 72.638v54.631h-512v-54.631c0-5.687 4.615-10.302 10.302-10.302h491.396c5.687 0 10.302 4.615 10.302 10.302z" fill="#EB423F"/><path d="m512 72.638v54.631h-24.549c.845-28.289.237-51.19-.391-64.932h14.639c5.686-.001 10.301 4.614 10.301 10.301z" fill="#A82A27"/><g fill="#A82A27"><path d="m41.255 102.531h-.117c-4.268 0-7.726-3.459-7.726-7.726s3.459-7.726 7.726-7.726h.117c4.268 0 7.726 3.459 7.726 7.726 0 4.266-3.459 7.726-7.726 7.726z"/><path d="m64.58 102.531h-.116c-4.268 0-7.726-3.459-7.726-7.726s3.459-7.726 7.726-7.726h.116c4.268 0 7.726 3.459 7.726 7.726.001 4.266-3.458 7.726-7.726 7.726z"/><path d="m87.907 102.531h-.116c-4.268 0-7.726-3.459-7.726-7.726s3.459-7.726 7.726-7.726h.116c4.268 0 7.726 3.459 7.726 7.726.001 4.266-3.458 7.726-7.726 7.726z"/><path d="m470.862 102.531h-14.377c-4.268 0-7.726-3.459-7.726-7.726s3.459-7.726 7.726-7.726h14.377c4.268 0 7.726 3.459 7.726 7.726.001 4.266-3.458 7.726-7.726 7.726z"/></g></g></g></svg>