<svg xmlns="http://www.w3.org/2000/svg" xmlns:xlink="http://www.w3.org/1999/xlink" width="348" height="269" viewBox="0 0 348 269">
  <defs>
    <clipPath id="clip-path">
      <rect id="Rectangle_18" data-name="Rectangle 18" width="348" height="269" transform="translate(641 4124)" fill="#fff" stroke="#707070" stroke-width="1"/>
    </clipPath>
    <clipPath id="clip-path-2">
      <rect id="Rectangle_17" data-name="Rectangle 17" width="190" height="146" transform="translate(363 4201)" fill="#fff" stroke="#707070" stroke-width="1"/>
    </clipPath>
  </defs>
  <g id="Group_31" data-name="Group 31" transform="translate(-786 -3761)">
    <g id="Mask_Group_12" data-name="Mask Group 12" transform="translate(145 -363)" clip-path="url(#clip-path)">
      <g id="janela-manutencao" transform="translate(641 4084.5)">
        <g id="Group_30" data-name="Group 30">
          <path id="Path_240" data-name="Path 240" d="M348,49.371V298.629a7,7,0,0,1-7,7H7a7,7,0,0,1-7-7V49.371a7,7,0,0,1,7-7H341A7,7,0,0,1,348,49.371Z" fill="#e9eef0"/>
          <path id="Path_241" data-name="Path 241" d="M348,49.371V298.629a7,7,0,0,1-7,7h-83.87c77.47-67.058,75.748-222.979,73.92-263.261H341a7,7,0,0,1,7,7Z" fill="#9ea2a3"/>
          <path id="Path_242" data-name="Path 242" d="M348,49.371V86.5H0V49.371a7,7,0,0,1,7-7H341A7,7,0,0,1,348,49.371Z" fill="#2bbdc4"/>
          <path id="Path_243" data-name="Path 243" d="M348,49.371V86.5H331.314c.574-19.228.161-34.793-.266-44.133H341A7,7,0,0,1,348,49.371Z" fill="#1a7377"/>
          <g id="Group_29" data-name="Group 29">
            <path id="Path_244" data-name="Path 244" d="M28.041,69.689h-.08a5.251,5.251,0,0,1,0-10.5h.08a5.251,5.251,0,0,1,0,10.5Z" fill="#1a7377"/>
            <path id="Path_245" data-name="Path 245" d="M43.894,69.689h-.079a5.251,5.251,0,0,1,0-10.5h.079a5.251,5.251,0,1,1,0,10.5Z" fill="#1a7377"/>
            <path id="Path_246" data-name="Path 246" d="M59.749,69.689H59.67a5.251,5.251,0,0,1,0-10.5h.079a5.251,5.251,0,0,1,0,10.5Z" fill="#1a7377"/>
            <path id="Path_247" data-name="Path 247" d="M320.039,69.689h-9.772a5.251,5.251,0,1,1,0-10.5h9.772a5.251,5.251,0,1,1,0,10.5Z" fill="#1a7377"/>
          </g>
        </g>
      </g>
    </g>
    <g id="Mask_Group_13" data-name="Mask Group 13" transform="translate(502 -357)" clip-path="url(#clip-path-2)">
      <g id="manutencao" transform="translate(385.125 4201)">
        <path id="Path_248" data-name="Path 248" d="M151.191,130.847a14.224,14.224,0,0,1-20.131,20.1L92.991,109.661l16.781-16.752Zm0,0" transform="translate(-12.456 -12.43)" fill="#2bbdc4"/>
        <path id="Path_249" data-name="Path 249" d="M100.216,84.044l8.381,7.68L91.816,108.475l-7.7-8.352Zm0,0" transform="translate(-11.281 -11.244)" fill="#495d85"/>
        <path id="Path_250" data-name="Path 250" d="M142.167,20.692,129.53,33.408h-8.053l-7.865-8.137V17.231L126.062,4.615A25.628,25.628,0,0,0,93.6,37.032L69.408,61.186l-.019-.02L31.627,23.378V15.341L11.5,3.281,3.448,11.32l12.076,20.1,8.05,0L61.338,69.206l.017.017L37.249,93.291A25.6,25.6,0,0,0,4.78,125.705l12.637-12.716H25.47l8.15,8.137v8.041L20.884,141.784A25.629,25.629,0,0,0,53.35,109.365L109.7,53.107a25.605,25.605,0,0,0,32.47-32.415Zm0,0" transform="translate(-0.599 -0.439)" fill="#e9eef0"/>
        <path id="Path_251" data-name="Path 251" d="M113.537,50.908a2.842,2.842,0,1,0,2.847,2.841A2.843,2.843,0,0,0,113.537,50.908Zm0,0" transform="translate(-14.8 -6.811)"/>
        <path id="Path_252" data-name="Path 252" d="M53.918,110.526a2.842,2.842,0,1,0,2.847,2.842A2.844,2.844,0,0,0,53.918,110.526Zm0,0" transform="translate(-6.905 -14.787)"/>
        <path id="Path_253" data-name="Path 253" d="M142.376,17.485a2.848,2.848,0,0,0-2.664.766l-11.8,11.876h-5.658l-6.228-6.443V17.957L127.656,6.17a2.841,2.841,0,0,0-1.119-4.688,28.507,28.507,0,0,0-32.2,10.361,28.057,28.057,0,0,0-4.392,23.944L68.974,56.723,34.039,21.763V14.9a2.841,2.841,0,0,0-1.382-2.437L12.529.405A2.848,2.848,0,0,0,9.051.833L1,8.87a2.842,2.842,0,0,0-.428,3.473l12.076,20.1a2.848,2.848,0,0,0,2.44,1.38l6.87,0L56.9,68.782,36.007,89.638A28.188,28.188,0,0,0,12.018,94.03a28.4,28.4,0,0,0-10.37,32.144,2.849,2.849,0,0,0,4.718,1.095l11.8-11.875h5.689l6.482,6.472v5.68L18.444,139.327a2.84,2.84,0,0,0,1.1,4.711,28.5,28.5,0,0,0,32.195-10.354,28.069,28.069,0,0,0,4.4-23.951l16.777-16.75,3.843,4.168-1.764,1.76a2.845,2.845,0,1,0,4.027,4.02l1.6-1.594,36.058,39.106c.027.029.054.057.082.084a17.068,17.068,0,0,0,24.157-24.119c-.029-.029-.059-.057-.089-.084L101.595,80.39l1.579-1.577a2.845,2.845,0,0,0-4.027-4.019L97.4,76.545l-4.182-3.833L110.072,55.88a28.444,28.444,0,0,0,34.357-36.534,2.842,2.842,0,0,0-2.053-1.861ZM25.155,28.972a2.82,2.82,0,0,0-2.014-.806l-6.439,0L6.6,11.321l4.907-4.9,16.84,10.09V22.94a2.839,2.839,0,0,0,.832,2.007l35.771,35.8-4.027,4.019ZM97.565,84.414l39.362,36.054a11.38,11.38,0,0,1-16.107,16.079L84.644,97.313Zm-4.2-3.847L80.784,93.128,76.941,88.96,89.184,76.735ZM117.447,51.16a22.783,22.783,0,0,1-7.276-1.185,2.855,2.855,0,0,0-2.921.684C92.978,64.908,62.227,95.61,50.9,106.917a2.838,2.838,0,0,0-.685,2.918,22.766,22.766,0,0,1-21.587,30,23.36,23.36,0,0,1-2.482-.133l9.042-8.958a2.839,2.839,0,0,0,.842-2.017v-8.041a2.84,2.84,0,0,0-.834-2.01l-8.15-8.137a2.849,2.849,0,0,0-2.013-.833H16.982a2.853,2.853,0,0,0-2.022.84L5.99,119.576a22.957,22.957,0,0,1-.133-2.478A22.462,22.462,0,0,1,15.34,98.647a22.569,22.569,0,0,1,20.567-3.1,2.848,2.848,0,0,0,2.921-.684c.157-.155,56.307-56.218,56.347-56.258a2.839,2.839,0,0,0,.685-2.917,22.764,22.764,0,0,1,21.586-30A23.3,23.3,0,0,1,120,5.826L111.148,14.8a2.838,2.838,0,0,0-.818,1.994v8.041a2.836,2.836,0,0,0,.8,1.974l7.865,8.137a2.847,2.847,0,0,0,2.048.868H129.1a2.847,2.847,0,0,0,2.021-.84l8.971-9.026A22.754,22.754,0,0,1,117.447,51.16Zm0,0" transform="translate(-0.164 0)"/>
        <path id="Path_254" data-name="Path 254" d="M96.807,61.019,61.183,96.586a2.845,2.845,0,0,0,4.027,4.019l35.623-35.567a2.845,2.845,0,0,0-4.027-4.019Zm0,0" transform="translate(-8.134 -8.052)"/>
        <path id="Path_255" data-name="Path 255" d="M139.791,143.619a2.845,2.845,0,1,0,4.02-4.026l-25.66-25.537a2.845,2.845,0,0,0-4.02,4.026Zm0,0" transform="translate(-15.145 -15.148)"/>
      </g>
    </g>
  </g>
</svg>
