<svg xmlns="http://www.w3.org/2000/svg" xmlns:xlink="http://www.w3.org/1999/xlink" width="348" height="261" viewBox="0 0 348 261">
  <defs>
    <clipPath id="clip-path">
      <rect id="Rectangle_4" data-name="Rectangle 4" width="348" height="261" transform="translate(787 1028)" fill="#fff"/>
    </clipPath>
  </defs>
  <g id="Mask_Group_2" data-name="Mask Group 2" transform="translate(-787 -1028)" clip-path="url(#clip-path)">
    <g id="landing-page" transform="translate(788.495 985.995)">
      <g id="Group_8" data-name="Group 8">
        <path id="Path_125" data-name="Path 125" d="M345.01,48.947V296.063A6.944,6.944,0,0,1,338.068,303H6.942A6.944,6.944,0,0,1,0,296.063V48.947A6.944,6.944,0,0,1,6.942,42H338.068A6.944,6.944,0,0,1,345.01,48.947Z" fill="#717177"/>
        <path id="Path_126" data-name="Path 126" d="M345.01,48.947V296.063A6.944,6.944,0,0,1,338.068,303H254.919c76.8-66.482,75.1-221.063,73.285-261h9.864a6.943,6.943,0,0,1,6.942,6.941Z" fill="#5f5f68"/>
        <path id="Path_127" data-name="Path 127" d="M345.01,48.947V85.76H0V48.947A6.944,6.944,0,0,1,6.942,42H338.068A6.944,6.944,0,0,1,345.01,48.947Z" fill="#ffb800"/>
        <path id="Path_128" data-name="Path 128" d="M345.01,48.947V85.76H328.468c.569-19.062.16-34.494-.263-43.754h9.864A6.943,6.943,0,0,1,345.01,48.947Z" fill="#ff9700"/>
        <g id="Group_7" data-name="Group 7">
          <path id="Path_129" data-name="Path 129" d="M27.8,69.09h-.079a5.206,5.206,0,1,1,0-10.412H27.8a5.206,5.206,0,1,1,0,10.412Z" fill="#ff7300"/>
          <path id="Path_130" data-name="Path 130" d="M43.517,69.09h-.078a5.206,5.206,0,0,1,0-10.412h.078a5.206,5.206,0,1,1,0,10.412Z" fill="#ff7300"/>
          <path id="Path_131" data-name="Path 131" d="M59.236,69.09h-.078a5.206,5.206,0,0,1,0-10.412h.078a5.206,5.206,0,1,1,0,10.412Z" fill="#ff7300"/>
          <path id="Path_132" data-name="Path 132" d="M317.289,69.09H307.6a5.206,5.206,0,1,1,0-10.412h9.688a5.206,5.206,0,1,1,0,10.412Z" fill="#ff7300"/>
        </g>
      </g>
      <g id="Group_12" data-name="Group 12">
        <path id="Path_133" data-name="Path 133" d="M312.84,129.764v137.92a6.944,6.944,0,0,1-6.942,6.942H167.978a6.944,6.944,0,0,1-6.942-6.942V129.764a6.944,6.944,0,0,1,6.942-6.942H305.9A6.944,6.944,0,0,1,312.84,129.764Z" fill="#ffb800"/>
        <path id="Path_134" data-name="Path 134" d="M312.84,129.764v137.92a6.944,6.944,0,0,1-6.942,6.942H270.571c28.725-42.547,24.4-127.626,22.505-151.8H305.9A6.944,6.944,0,0,1,312.84,129.764Z" fill="#ff9700"/>
        <path id="Path_135" data-name="Path 135" d="M161.036,193.5v74.187a6.942,6.942,0,0,0,6.942,6.942H305.9a6.942,6.942,0,0,0,6.942-6.942V227.345c-29.343-11.391-87.731-30.773-151.8-33.848Z" fill="#45259c"/>
        <path id="Path_136" data-name="Path 136" d="M312.84,206.472v61.213a6.944,6.944,0,0,1-6.942,6.942H167.978a6.944,6.944,0,0,1-6.942-6.942V240.32c26.074-10.121,75.083-26.552,130.631-32.245,6.964-.715,14.037-1.263,21.173-1.6Z" fill="#7a48ff"/>
        <path id="Path_137" data-name="Path 137" d="M312.84,206.472v61.213a6.944,6.944,0,0,1-6.942,6.942H270.571c11.759-17.417,17.98-41.971,21.1-66.551C298.631,207.36,305.7,206.812,312.84,206.472Z" fill="#5c32cf"/>
        <g id="Group_10" data-name="Group 10">
          <g id="Group_9" data-name="Group 9">
            <circle id="Ellipse_1" data-name="Ellipse 1" cx="22.647" cy="22.647" r="22.647" transform="translate(142.955 109.452)" fill="#ff2953"/>
            <path id="Path_138" data-name="Path 138" d="M163.25,145.467a5.206,5.206,0,0,1-3.543-9.022l4.681-4.345-4.681-4.344a5.207,5.207,0,0,1,7.083-7.633l8.793,8.161a5.205,5.205,0,0,1,0,7.632l-8.793,8.161a5.191,5.191,0,0,1-3.54,1.39Z" fill="#ff9293"/>
          </g>
        </g>
        <path id="Path_139" data-name="Path 139" d="M93.951,150.234H32.167a5.206,5.206,0,0,1,0-10.412H93.95a5.206,5.206,0,0,1,0,10.412Z" fill="#ffb800"/>
        <g id="Group_11" data-name="Group 11">
          <path id="Path_140" data-name="Path 140" d="M124.495,185.347H32.167a5.206,5.206,0,0,1,0-10.412h92.327a5.206,5.206,0,0,1,0,10.412Z" fill="#e8e6ed"/>
          <path id="Path_141" data-name="Path 141" d="M124.495,202.115H32.167a5.206,5.206,0,0,1,0-10.412h92.327a5.206,5.206,0,0,1,0,10.412Z" fill="#e8e6ed"/>
          <path id="Path_142" data-name="Path 142" d="M124.495,218.883H32.167a5.206,5.206,0,0,1,0-10.412h92.327a5.206,5.206,0,0,1,0,10.412Z" fill="#e8e6ed"/>
        </g>
        <path id="Path_143" data-name="Path 143" d="M74.377,255.3H41.329a9.161,9.161,0,1,1,0-18.322H74.377a9.161,9.161,0,1,1,0,18.322Z" fill="#ff2953"/>
      </g>
    </g>
  </g>
</svg>
