<svg xmlns="http://www.w3.org/2000/svg" xmlns:xlink="http://www.w3.org/1999/xlink" width="348" height="269" viewBox="0 0 348 269">
  <defs>
    <clipPath id="clip-path">
      <rect id="Retângulo_5" data-name="Retângulo 5" width="348" height="269" transform="translate(1246 1028)" fill="none"/>
    </clipPath>
    <clipPath id="clip-path-2">
      <rect id="Retângulo_6" data-name="Retângulo 6" width="219" height="168" transform="translate(1306 1094)" fill="rgba(255,255,255,0)" stroke="#707070" stroke-width="1"/>
    </clipPath>
  </defs>
  <g id="Grupo_23" data-name="Grupo 23" transform="translate(-1245 -1022)">
    <g id="Grupo_de_máscara_4" data-name="Grupo de máscara 4" transform="translate(-1 -6)" clip-path="url(#clip-path)">
      <g id="ecommerce" transform="translate(1246 985.631)">
        <g id="Grupo_14" data-name="Grupo 14">
          <path id="Caminho_157" data-name="Caminho 157" d="M348,49.506V303.549a7.073,7.073,0,0,1-7,7.137H7a7.073,7.073,0,0,1-7-7.137V49.506a7.073,7.073,0,0,1,7-7.137H341A7.073,7.073,0,0,1,348,49.506Z" fill="#404044"/>
          <path id="Caminho_158" data-name="Caminho 158" d="M348,49.506V303.549a7.073,7.073,0,0,1-7,7.137h-83.87c77.47-68.345,75.748-227.26,73.92-268.316H341a7.072,7.072,0,0,1,7,7.136Z" transform="translate(0 0)" fill="#0f1010"/>
          <path id="Caminho_159" data-name="Caminho 159" d="M348,49.371V86.5H0V49.371a7,7,0,0,1,7-7H341A7,7,0,0,1,348,49.371Z" fill="#eb423f"/>
          <path id="Caminho_160" data-name="Caminho 160" d="M348,49.371V86.5H331.314c.574-19.228.161-34.793-.266-44.133H341A7,7,0,0,1,348,49.371Z" fill="#a82a27"/>
          <g id="Grupo_13" data-name="Grupo 13" transform="translate(22.71 59.187)">
            <path id="Caminho_161" data-name="Caminho 161" d="M28.041,69.689h-.08a5.251,5.251,0,0,1,0-10.5h.08a5.251,5.251,0,0,1,0,10.5Z" transform="translate(-22.71 -59.187)" fill="#a82a27"/>
            <path id="Caminho_162" data-name="Caminho 162" d="M43.894,69.689h-.079a5.251,5.251,0,0,1,0-10.5h.079a5.251,5.251,0,1,1,0,10.5Z" transform="translate(-22.71 -59.187)" fill="#a82a27"/>
            <path id="Caminho_163" data-name="Caminho 163" d="M59.749,69.689H59.67a5.251,5.251,0,0,1,0-10.5h.079a5.251,5.251,0,0,1,0,10.5Z" transform="translate(-22.71 -59.187)" fill="#a82a27"/>
            <path id="Caminho_164" data-name="Caminho 164" d="M320.039,69.689h-9.772a5.251,5.251,0,1,1,0-10.5h9.772a5.251,5.251,0,1,1,0,10.5Z" transform="translate(-22.71 -59.187)" fill="#a82a27"/>
          </g>
        </g>
      </g>
    </g>
    <g id="Grupo_de_máscara_5" data-name="Grupo de máscara 5" transform="translate(6 -4)" clip-path="url(#clip-path-2)">
      <g id="online-shopping" transform="translate(1317.755 1081.782)">
        <path id="Caminho_165" data-name="Caminho 165" d="M106.909,73.309a3.055,3.055,0,0,1-3.055-3.055V39.709a21.382,21.382,0,0,0-42.764,0V70.255a3.055,3.055,0,0,1-6.109,0V39.709a27.491,27.491,0,1,1,54.982,0V70.255A3.055,3.055,0,0,1,106.909,73.309Z" fill="#dadcde"/>
        <path id="Caminho_166" data-name="Caminho 166" d="M113.018,180.218H9.164L15.273,58.036h91.636Z" fill="#eb423f"/>
        <path id="Caminho_167" data-name="Caminho 167" d="M137.455,180.218H113.018L106.909,58.036h24.436Z" fill="#d13330"/>
        <path id="Caminho_168" data-name="Caminho 168" d="M125.416,164.942c-.061,0-.122,0-.183,0a3.055,3.055,0,0,1-3.047-2.875L116.077,58.216c0-.061,0-.118,0-.179h6.117l6.1,103.675a3.057,3.057,0,0,1-2.871,3.23Z" fill="#a82a27"/>
        <path id="Caminho_169" data-name="Caminho 169" d="M186.327,180.218H161.891l-.382-4.937v0L155.782,100.8h24.436l5.632,73.191v0Z" fill="#eba72e"/>
        <path id="Caminho_170" data-name="Caminho 170" d="M174.415,164.93a2.8,2.8,0,0,1-.309.015,3.055,3.055,0,0,1-3.035-2.749l-.111-1.092-6-60a2.73,2.73,0,0,1-.015-.305h6.124l6,60.026.076.76a3.055,3.055,0,0,1-2.734,3.345Z" fill="#e09f2c"/>
        <path id="Caminho_171" data-name="Caminho 171" d="M186.327,180.218h-3.673L174.109,167.4l-8.545,12.821h-3.673l-.382-4.937v0l9.45-14.173.607-.909a3.058,3.058,0,0,1,5.086,0l.42.63,8.778,13.165v0Z" fill="#e09f2c"/>
        <path id="Caminho_172" data-name="Caminho 172" d="M161.891,180.218H82.473L88.582,100.8h67.2Z" fill="#f7b030"/>
        <path id="Caminho_173" data-name="Caminho 173" d="M125.236,158.836h-6.109a15.29,15.29,0,0,1-15.273-15.273V119.127a3.055,3.055,0,1,1,6.109,0v24.436a9.174,9.174,0,0,0,9.164,9.164h6.109a9.174,9.174,0,0,0,9.164-9.164V119.127a3.055,3.055,0,0,1,6.109,0v24.436A15.29,15.29,0,0,1,125.236,158.836Z" fill="#e9eef2"/>
        <path id="Caminho_174" data-name="Caminho 174" d="M36.655,70.255h6.109V88.582H36.655Z" fill="#dadcde"/>
        <path id="Caminho_175" data-name="Caminho 175" d="M39.709,73.309a3.055,3.055,0,0,1-3.055-3.055V39.709a27.491,27.491,0,1,1,54.982,0V70.255a3.055,3.055,0,0,1-6.109,0V39.709a21.382,21.382,0,1,0-42.764,0V70.255A3.055,3.055,0,0,1,39.709,73.309Z" fill="#e9eef2"/>
        <path id="Caminho_176" data-name="Caminho 176" d="M48.873,113.018H30.545V88.582l9.164-6.109,9.164,6.109Z" fill="#f7b030"/>
      </g>
    </g>
  </g>
</svg>
