<svg xmlns="http://www.w3.org/2000/svg" width="125" height="125" viewBox="0 0 125 125">
  <g id="facebook-app-logo" transform="translate(0 -0.001)">
    <g id="Grupo_19" data-name="Grupo 19" transform="translate(0 0.001)">
      <path id="Caminho_8" data-name="Caminho 8" d="M118.1,0H6.9A6.9,6.9,0,0,0,0,6.9V118.1A6.9,6.9,0,0,0,6.9,125H66.765V76.594H50.476V57.726H66.765V43.812c0-16.143,9.857-24.937,24.26-24.937a135.1,135.1,0,0,1,14.554.741V36.489l-9.991,0c-7.832,0-9.342,3.723-9.342,9.184V57.72H104.93l-2.443,18.866H86.244v48.409h31.851A6.906,6.906,0,0,0,125,118.1V6.9A6.9,6.9,0,0,0,118.1,0Z" transform="translate(0 -0.001)" fill="#3b5998"/>
    </g>
  </g>
</svg>
