<svg xmlns="http://www.w3.org/2000/svg" width="122" height="122" viewBox="0 0 122 122">
  <path id="Caminho_3" data-name="Caminho 3" d="M112.368,80.327a69.639,69.639,0,0,1-21.889-3.487,9.38,9.38,0,0,0-9.522,2.016l-13.85,10.46c-15.886-8.476-26.057-18.64-34.43-34.423L42.854,41.371a9.722,9.722,0,0,0,2.382-9.824,69.827,69.827,0,0,1-3.5-21.915A9.643,9.643,0,0,0,32.105,0H9.632A9.643,9.643,0,0,0,0,9.632,112.5,112.5,0,0,0,112.368,122,9.643,9.643,0,0,0,122,112.368V89.959A9.643,9.643,0,0,0,112.368,80.327Zm3.211,32.041a3.216,3.216,0,0,1-3.211,3.211A106.068,106.068,0,0,1,6.421,9.632,3.216,3.216,0,0,1,9.632,6.421H32.105a3.216,3.216,0,0,1,3.211,3.211,76.227,76.227,0,0,0,3.8,23.886,3.554,3.554,0,0,1-1.1,3.66L26.326,52.653a3.21,3.21,0,0,0-.3,3.39c9.522,18.7,21.087,30.275,39.926,39.926a3.2,3.2,0,0,0,3.4-.3L85.163,83.692a3.22,3.22,0,0,1,3.268-.764,76.178,76.178,0,0,0,23.938,3.82,3.216,3.216,0,0,1,3.211,3.211v22.409Z" fill="yellow"/>
</svg>
