<svg xmlns="http://www.w3.org/2000/svg" width="125" height="101.563" viewBox="0 0 125 101.563">
  <g id="twitter" transform="translate(-74 -48)">
    <g id="Grupo_21" data-name="Grupo 21" transform="translate(74 48)">
      <g id="Grupo_20" data-name="Grupo 20">
        <path id="Caminho_12" data-name="Caminho 12" d="M125,60.023a53.428,53.428,0,0,1-14.766,4.047,25.482,25.482,0,0,0,11.273-14.164,51.212,51.212,0,0,1-16.25,6.2A25.624,25.624,0,0,0,60.93,73.633a26.387,26.387,0,0,0,.594,5.844A72.535,72.535,0,0,1,8.7,52.672a25.633,25.633,0,0,0,7.875,34.25A25.307,25.307,0,0,1,5,83.766v.281a25.744,25.744,0,0,0,20.531,25.18,25.577,25.577,0,0,1-6.719.844,22.658,22.658,0,0,1-4.852-.437,25.87,25.87,0,0,0,23.945,17.852,51.491,51.491,0,0,1-31.773,10.93A48,48,0,0,1,0,138.063a72.144,72.144,0,0,0,39.313,11.5c47.156,0,72.937-39.062,72.937-72.922,0-1.133-.039-2.227-.094-3.312A51.123,51.123,0,0,0,125,60.023Z" transform="translate(0 -48)" fill="#00aced"/>
      </g>
    </g>
  </g>
</svg>
