<svg xmlns="http://www.w3.org/2000/svg" width="122" height="122" viewBox="0 0 122 122">
  <path id="Caminho_7" data-name="Caminho 7" d="M104.475,17.73A60.8,60.8,0,0,0,.759,60.45,60.124,60.124,0,0,0,8.868,90.674L.25,122l32.2-8.407a60.911,60.911,0,0,0,29.028,7.358h.025A60.687,60.687,0,0,0,122.25,60.5,59.937,59.937,0,0,0,104.475,17.73Zm-42.97,93.012h-.021a50.611,50.611,0,0,1-25.7-7l-1.843-1.089-19.109,4.989,5.1-18.542-1.2-1.9A50.23,50.23,0,0,1,61.525,10.211a50.266,50.266,0,1,1-.02,100.532ZM89.2,73.109c-1.517-.757-8.98-4.41-10.372-4.915s-2.4-.755-3.414.757-3.921,4.915-4.807,5.922-1.77,1.135-3.288.378a41.5,41.5,0,0,1-12.206-7.5A45.6,45.6,0,0,1,46.669,57.29c-.884-1.513-.007-2.252.666-3.083a42.735,42.735,0,0,0,3.794-5.167A2.767,2.767,0,0,0,51,46.394c-.379-.756-3.414-8.191-4.679-11.216-1.233-2.944-2.483-2.547-3.416-2.593-.884-.044-1.9-.053-2.909-.053a5.587,5.587,0,0,0-4.048,1.891,16.908,16.908,0,0,0-5.312,12.6c0,7.435,5.439,14.618,6.2,15.626s10.7,16.266,25.928,22.808a87.146,87.146,0,0,0,8.653,3.183,20.9,20.9,0,0,0,9.56.6c2.917-.434,8.979-3.655,10.245-7.183s1.264-6.553.884-7.183-1.391-1.007-2.908-1.764Zm0,0" transform="translate(-0.25)" fill="#34af23" fill-rule="evenodd"/>
</svg>
